<?xml version="1.0" encoding="utf-8"?>
<!-- Generator: Adobe Illustrator 27.2.0, SVG Export Plug-In . SVG Version: 6.00 Build 0)  -->
<svg version="1.1" id="OBJECTS" xmlns="http://www.w3.org/2000/svg" xmlns:xlink="http://www.w3.org/1999/xlink" x="0px" y="0px"
	 viewBox="0 0 92.5 86" style="enable-background:new 0 0 92.5 86;" xml:space="preserve">
<g>
	<path d="M17.5,28.6c-1.5,0-2.8,1.3-2.8,2.8v2.1l4.9-4.9H17.5z"/>
	<polygon points="29.2,28.6 25.5,32.3 24.7,35.2 15.7,44.3 14.7,44.5 14.7,49.1 35.2,28.6 	"/>
	<path d="M41.3,18.9v3.6l5.4-5.4l-0.9-0.7c-0.3-0.2-0.6-0.4-1-0.5l-2.9,2.9L41.3,18.9z"/>
	<polygon points="23.1,28.6 22.9,29.3 14.7,37.5 14.7,41.3 27.4,28.6 	"/>
	<path d="M49.3,19.1l-5.6,5.6l-2.5,0.7v0.5c0,1.5-1.3,2.8-2.8,2.8h-1.5l-9.6,9.6l-0.8,2.9l-9,9l-2.8,0.7v3.6c0,0.7,0.2,1.2,0.6,1.7
		L51,20.5L49.3,19.1z"/>
	<path d="M69,50.8l-0.1,0.5l7.8-6.2c0.9-0.7,1.2-1.9,0.9-3L69,50.8z"/>
	<path d="M65,31.5L63.6,33l-1,3.9L51,48.4l-3.9,1l-8,8c1.2,0.3,2.1,1.4,2.1,2.7v1.2l27.1-27.1L65,31.5z"/>
	<path d="M69.4,34.9l-4,4l-1,3.9L52.9,54.3l-3.9,1l-7.7,7.7v4.3c0,0.5,0.1,1,0.4,1.4l31.1-31.1L69.4,34.9z"/>
	<path d="M53.6,22.5l-8.1,8.1l-3.9,1L29.2,44.2l-0.8,2.9l-9,9l-2.9,0.8L16.3,57c0.4,0.2,0.8,0.3,1.2,0.3H22l33.4-33.4L53.6,22.5z"/>
	<path d="M76.7,40.8l-3-2.4l-6.5,6.5l-1,3.9L54.7,60.2l-3.9,1l-8.3,8.3c0.9,0.7,2.3,0.7,3.3-0.1l13-10.2L77,41
		C76.9,40.9,76.8,40.8,76.7,40.8z"/>
	<polygon points="58,26 47.4,36.5 43.5,37.6 31,50.1 30.2,53 25.9,57.3 29.8,57.3 59.7,27.3 	"/>
	<polygon points="61.3,28.6 60.7,31 49.2,42.5 45.3,43.5 32.8,56 32.5,57.3 37.5,57.3 64,30.8 	"/>
</g>
</svg>
