<?xml version="1.0" encoding="utf-8"?>
<!-- Generator: Adobe Illustrator 27.2.0, SVG Export Plug-In . SVG Version: 6.00 Build 0)  -->
<svg version="1.1" id="Capa_1" xmlns="http://www.w3.org/2000/svg" xmlns:xlink="http://www.w3.org/1999/xlink" x="0px" y="0px"
	 viewBox="0 0 219.2 219.2" style="enable-background:new 0 0 219.2 219.2;" xml:space="preserve">
<style type="text/css">
	.st0{fill:#FFFFFF;}
</style>
<g>
	<path class="st0" d="M109.6,215.4c58.4,0,105.8-47.5,105.8-105.8c0-58.4-47.5-105.8-105.8-105.8S3.7,51.2,3.7,109.6
		C3.7,167.9,51.2,215.4,109.6,215.4z M109.6,18.2c50.4,0,91.4,41,91.4,91.4c0,50.4-41,91.4-91.4,91.4c-50.4,0-91.4-41-91.4-91.4
		C18.2,59.2,59.2,18.2,109.6,18.2z"/>
	<path class="st0" d="M95.4,154.9c2.8,2.8,7.4,2.8,10.2,0c2.8-2.8,2.8-7.4,0-10.2l-27.8-27.8l80.6,0c4,0,7.2-3.2,7.2-7.2
		c0-4-3.2-7.2-7.2-7.2l-80.6,0l27.8-27.8c2.8-2.8,2.8-7.4,0-10.2c-1.4-1.4-3.3-2.1-5.1-2.1c-1.9,0-3.7,0.7-5.1,2.1l-40.2,40.2
		c-1.4,1.4-2.1,3.2-2.1,5.1c0,1.9,0.8,3.8,2.1,5.1L95.4,154.9z"/>
</g>
</svg>
