<?xml version="1.0" encoding="utf-8"?>
<!-- Generator: Adobe Illustrator 27.2.0, SVG Export Plug-In . SVG Version: 6.00 Build 0)  -->
<svg version="1.1" id="Capa_1" xmlns="http://www.w3.org/2000/svg" xmlns:xlink="http://www.w3.org/1999/xlink" x="0px" y="0px"
	 viewBox="0 0 512 512" style="enable-background:new 0 0 512 512;" xml:space="preserve">
<style type="text/css">
	.st0{fill:none;stroke:#FFFFFF;stroke-width:20;stroke-linecap:round;stroke-linejoin:round;stroke-miterlimit:10;}
</style>
<g>
	<path class="st0" d="M183.1,31.6c40.3,0,72.9,32.6,72.9,72.9c0,97.7,0,205.3,0,303c0,40.2-32.6,72.9-72.9,72.9
		c-37.6,0-68.5-28.4-72.5-64.9c-26.8-8.6-46.2-33.7-46.2-63.4c0-7.1,1.1-13.9,3.1-20.2C34.3,322.5,10,292.1,10,256
		c0-36.1,24.3-66.5,57.5-75.7c-2.1-6.4-3.1-13.2-3.1-20.3c0-29.7,19.4-54.8,46.2-63.4C114.6,60,145.6,31.6,183.1,31.6L183.1,31.6z"
		/>
	<path class="st0" d="M94.3,215.6c-18-11.9-29.9-32.4-29.9-55.6c0-7.9,1.4-15.6,3.9-22.6"/>
	<path class="st0" d="M94.3,296.4c-18,11.9-29.9,32.3-29.9,55.6c0,7.9,1.4,15.6,3.9,22.6"/>
	<path class="st0" d="M183.1,177.4c-40.3,0-72.9-32.6-72.9-72.9c0-2.7,0.1-5.4,0.4-7.9"/>
	<path class="st0" d="M183.1,334.6c-40.3,0-72.9,32.6-72.9,72.9c0,2.7,0.1,5.3,0.4,7.9"/>
	<path class="st0" d="M328.9,480.4c-40.2,0-72.9-32.6-72.9-72.9c0-97.7,0-205.3,0-303c0-40.3,32.6-72.9,72.9-72.9
		c37.6,0,68.5,28.4,72.5,64.9c26.8,8.6,46.2,33.7,46.2,63.4c0,7.1-1.1,13.9-3.1,20.3c33.2,9.2,57.5,39.6,57.5,75.7
		c0,36.1-24.3,66.5-57.5,75.8c2,6.4,3.1,13.2,3.1,20.2c0,29.7-19.4,54.8-46.2,63.4C397.4,452,366.4,480.4,328.9,480.4L328.9,480.4z"
		/>
	<line class="st0" x1="257.1" y1="256" x2="386.2" y2="256"/>
	<path class="st0" d="M411.1,231.2c-13.7,0-24.9,11.1-24.9,24.8s11.1,24.9,24.9,24.9s24.8-11.1,24.8-24.9
		C435.9,242.3,424.8,231.2,411.1,231.2L411.1,231.2z"/>
	<path class="st0" d="M349.9,126.7c-13.7,0-24.8,11.1-24.8,24.9c0,13.7,11.1,24.8,24.8,24.8s24.9-11.1,24.9-24.8
		C374.8,137.8,363.6,126.7,349.9,126.7L349.9,126.7z"/>
	<polyline class="st0" points="256,209.1 316.7,209.1 337.5,173.1 	"/>
	<path class="st0" d="M349.9,385.3c-13.7,0-24.8-11.1-24.8-24.8s11.1-24.9,24.8-24.9s24.9,11.1,24.9,24.9
		C374.8,374.2,363.6,385.3,349.9,385.3L349.9,385.3z"/>
	<polyline class="st0" points="256,302.9 316.7,302.9 337.5,338.9 	"/>
</g>
</svg>
