<?xml version="1.0" encoding="utf-8"?>
<!-- Generator: Adobe Illustrator 27.2.0, SVG Export Plug-In . SVG Version: 6.00 Build 0)  -->
<svg version="1.1" id="Layer_1" xmlns="http://www.w3.org/2000/svg" xmlns:xlink="http://www.w3.org/1999/xlink" x="0px" y="0px"
	 viewBox="0 0 512 512" style="enable-background:new 0 0 512 512;" xml:space="preserve">
<style type="text/css">
	.st0{fill:#D9E143;}
</style>
<g>
	<path class="st0" d="M47.1,190.7h16.1c19.9-0.7,19.9-29.3,0-30H47.1C27.3,161.4,27.3,189.9,47.1,190.7z"/>
	<path class="st0" d="M464.9,321.3h-16.1c-19.9,0.7-19.9,29.3,0,30h16.1C484.7,350.6,484.7,322.1,464.9,321.3z"/>
	<path class="st0" d="M175.7,78.2c8.3,0,15-6.7,15-15V47.1c-0.7-19.9-29.3-19.9-30,0v16.1C160.7,71.5,167.4,78.2,175.7,78.2z"/>
	<path class="st0" d="M336.3,433.8c-8.3,0-15,6.7-15,15v16.1c0.7,19.9,29.3,19.9,30,0v-16.1C351.3,440.5,344.6,433.8,336.3,433.8z"
		/>
	<path class="st0" d="M85.5,106.7c14.6,13.6,34.8-6.6,21.2-21.2L95.4,74.2c-14.6-13.6-34.8,6.6-21.2,21.2
		C74.2,95.4,85.5,106.7,85.5,106.7z"/>
	<path class="st0" d="M426.5,405.3c-14.6-13.6-34.8,6.6-21.2,21.2l11.3,11.4c14.6,13.6,34.8-6.6,21.2-21.2
		C437.8,416.6,426.5,405.3,426.5,405.3z"/>
	<path class="st0" d="M53.8,412.8c-3.6-3.6-6.9-7.3-10-11.2L4.4,440.9c-5.9,5.9-5.9,15.4,0,21.2l45.5,45.5c5.9,5.9,15.4,5.9,21.2,0
		l39.4-39.4C102.3,462.5,61.8,420.4,53.8,412.8L53.8,412.8z"/>
	<path class="st0" d="M162.9,212.8l45.4,45.4l24.3-24.3c12.5-12.5,12.6-32.8,0-45.4c-12.5-12.5-32.9-12.5-45.5,0L162.9,212.8z"/>
	<path class="st0" d="M323.4,279.4c-12.5-12.5-32.9-12.5-45.5,0l-24.2,24.2l45.4,45.4l24.3-24.2
		C335.9,312.4,336.1,292.1,323.4,279.4L323.4,279.4z"/>
	<path class="st0" d="M130.3,222.7c-5.9-5.9-15.3-5.9-21.2,0L75,256.7c-37.3,37.3-37.3,97.6,0,134.8l45.4,45.4
		c37.2,37.2,97.7,37.1,134.9,0c0,0,34-34.1,34-34.1c5.9-5.9,5.9-15.4,0-21.2L130.3,222.7z"/>
	<path class="st0" d="M507.6,49.8L462.2,4.4c-5.9-5.9-15.4-5.9-21.2,0l-39.4,39.4c3.9,3.1,7.7,6.4,11.2,10
		c7.8,8.2,49.5,48.4,55.4,56.7l39.4-39.4C513.5,65.2,513.5,55.7,507.6,49.8z"/>
	<path class="st0" d="M437,255.3c37.3-37.3,37.3-97.6,0-134.8L391.6,75c-37.2-37.1-97.7-37.1-134.9,0c0,0-34,34.1-34,34.1
		c-5.9,5.9-5.9,15.4,0,21.2l159.1,159.1c5.9,5.9,15.3,5.9,21.2,0L437,255.3z"/>
</g>
</svg>
