<?xml version="1.0" encoding="utf-8"?>
<!-- Generator: Adobe Illustrator 27.2.0, SVG Export Plug-In . SVG Version: 6.00 Build 0)  -->
<svg version="1.1" id="Layer_1" xmlns="http://www.w3.org/2000/svg" xmlns:xlink="http://www.w3.org/1999/xlink" x="0px" y="0px"
	 viewBox="0 0 512 512" style="enable-background:new 0 0 512 512;" xml:space="preserve">
<g>
	<path d="M160,384c2.8,0,5.7-0.1,8.5-0.3l-1-16c-2.5,0.2-5,0.2-7.5,0.2c-17.9,0-34.6-3.8-47-10.7c-10.8-6-17-13.8-17-21.3
		c0-1.8,0.3-3.6,1-5.3l-15-5.5c-1.3,3.4-1.9,7.1-1.9,10.7C80,362.9,115.1,384,160,384z"/>
	<path d="M24,72c17.7,0,32,14.3,32,32c0,4.4,3.6,8,8,8s8-3.6,8-8c0-17.7,14.3-32,32-32c4.4,0,8-3.6,8-8s-3.6-8-8-8
		c-17.7,0-32-14.3-32-32c0-4.4-3.6-8-8-8s-8,3.6-8,8c0,17.7-14.3,32-32,32c-4.4,0-8,3.6-8,8S19.6,72,24,72z M64,50.5
		c3.6,5.3,8.1,9.9,13.5,13.5c-5.3,3.6-9.9,8.1-13.5,13.5c-3.6-5.3-8.1-9.9-13.5-13.5C55.9,60.4,60.4,55.9,64,50.5z"/>
	<path d="M169,269.9l10.9-11.7c-45.4-42.1-48-112.9-5.9-158.3c35.5-38.3,92.7-46.9,138-20.9l8-13.9c-61.3-35.3-139.5-14.2-174.8,47
		C115.3,163.8,125.2,229.3,169,269.9z"/>
	<path d="M256,288c-18.2,0-36.1-4.4-52.3-12.9l-7.5,14.1c62.5,33,140,9,173-53.5c25.4-48.1,17.6-106.9-19.3-146.8l-11.7,10.9
		c42.1,45.4,39.4,116.2-6,158.3C311.4,277.3,284.2,288,256,288z"/>
	<path d="M451.7,212.8c2.9-12.1,4.3-24.4,4.3-36.8c0-88.2-71.8-160-160-160h-40C167.8,16,96,87.8,96,176c0,19.2,3.4,38.1,10.2,56.1
		c-24,7.5-44.8,19.8-60.7,36C26.2,287.7,16,311.2,16,336v56c0,28.3,15.3,54.7,43.2,74.4C86.2,485.5,122,496,160,496
		s73.8-10.5,100.8-29.6c14.4-10.2,25.5-22.2,32.8-35.3c18.9,5.9,38.6,8.9,58.4,8.9c38,0,73.8-10.5,100.8-29.6
		c27.9-19.7,43.2-46.1,43.2-74.4v-48C496,259.5,479.9,232.4,451.7,212.8z M480,288c0,48.5-57.4,88-128,88c-16.2,0.1-32.4-2.1-48-6.4
		v-16.4c15.6,4.6,31.8,6.9,48,6.8c29.2,0,56.8-7.1,77.7-19.9C451.8,326.5,464,308,464,288c0-16.1-8.2-31.6-23.2-44.1
		c2.3-4.8,4.3-9.8,6.1-14.8C468.1,245.3,480,266.3,480,288z M360,391.8c10.8-0.4,21.5-1.7,32-3.9v31.6c-10.5,2.4-21.2,3.8-32,4.2
		V391.8z M407.7,384c11.2-3.3,22.1-7.9,32.3-13.6v29.4c-10,6.4-20.7,11.6-32,15.3V384H407.7z M409.9,88c7.6,9.8,13.9,20.6,18.8,32
		h-22.8c-4.2-11.2-9.7-22-16.3-32H409.9z M448,288c0,14.2-9.5,27.9-26.7,38.4c-18.4,11.3-43,17.6-69.3,17.6
		c-16.3,0.1-32.5-2.5-48-7.6V336c0-0.1,0-0.1,0-0.2c53.2-2.7,101.6-31.7,129.1-77.4C442.8,267.3,448,277.6,448,288z M415.8,168
		c-0.5-10.8-2.2-21.5-4.9-32h23.4c3,10.4,4.8,21.2,5.4,32H415.8z M415.8,184h24c-0.6,10.8-2.4,21.6-5.4,32h-23.4
		C413.6,205.5,415.3,194.8,415.8,184z M405.9,232h22.8c-4.9,11.4-11.2,22.2-18.8,32h-20.3C396.2,254,401.7,243.2,405.9,232z
		 M377.5,280h18c-16.6,15.9-36.8,27.6-58.9,34.2C352,305.1,365.9,293.6,377.5,280z M395.5,72h-18c-11.6-13.6-25.4-25.1-40.9-34.2
		C358.7,44.4,378.9,56.1,395.5,72z M256,32c79.4,0,144,64.6,144,144s-64.6,144-144,144s-144-64.6-144-144S176.6,32,256,32z
		 M56.9,279.2c14.2-14.4,33.7-25.8,55.7-32.4c2.4,4.9,5.1,9.6,8,14.2C77.2,272.6,48,302,48,336c0,12.8,4.3,25.4,12.3,36.7l13-9.3
		c-6.2-8.6-9.3-17.8-9.3-27.3c0-14.2,6.9-27.6,20-38.9c11.9-10.3,28.2-18,46.5-21.9c3.9,4.9,8,9.5,12.4,13.9
		c-16.8,2.1-32.1,7.4-43.4,15.2l9.1,13.2C121,308.9,139.7,304,160,304v-0.1c18.8,14.2,40.5,24,63.6,28.8c0.3,1.1,0.4,2.2,0.4,3.3
		c0,11.2-13.7,22.5-34.1,28.1l4.3,15.4c28.3-7.8,45.9-24.5,45.9-43.6c0-0.3,0-0.5,0-0.8c5.3,0.5,10.6,0.8,16,0.8h32
		c0,52.9-57.4,96-128,96S32,388.9,32,336C32,315.4,40.6,295.8,56.9,279.2z M72,424.7c10.1,6,20.8,10.9,32,14.5v31.9
		c-11.3-3.7-22-8.9-32-15.3V424.7z M120,443.6c10.5,2.3,21.2,3.7,32,4.2v32c-10.8-0.4-21.5-1.9-32-4.2V443.6z M168,447.8
		c10.8-0.4,21.5-1.8,32-4.2v31.9c-10.5,2.4-21.2,3.8-32,4.2V447.8z M216,439.3c11.2-3.6,21.9-8.5,32-14.5v31.1
		c-10,6.4-20.7,11.6-32,15.3V439.3z M32,392v-4.5c6.6,9.8,14.7,18.6,24,26v29.7C40.9,428.8,32,411.1,32,392z M264,443.2v-29.7
		c9.3-7.4,17.4-16.2,24-26v4.5C288,411.1,279.1,428.8,264,443.2z M304,392v-5.9c13.1,3.3,26.5,5.2,40,5.7v32
		c-14.9-0.6-29.7-3.1-43.9-7.4C302.7,408.5,304,400.3,304,392z M480,336c0,19.1-8.9,36.8-24,51.2v-27.2
		C465.2,353.3,473.3,345.1,480,336L480,336z"/>
	<path d="M98.5,385l-7.8,14c19.9,11.1,43.8,17,69.3,17c46.9,0,89.2-21,105.2-52.4l-14.2-7.3c-13.3,26.1-49.9,43.6-91,43.6
		C137.6,400,115.8,394.7,98.5,385z"/>
	<path d="M352,464c-12.9,0-25.8-1.2-38.5-3.5l-2.9,15.7c13.7,2.5,27.6,3.8,41.5,3.8c36.8,0,72.7-8.9,101.1-25l-7.9-13.9
		C419.2,455.8,386.1,464,352,464z"/>
	<path d="M459.2,431.9l9.6,12.8c6.1-4.5,11.8-9.6,17.1-15.1l-11.7-10.9C469.6,423.5,464.6,427.9,459.2,431.9z"/>
	<path d="M62.3,126c-1.4,5.5-2.6,11.1-3.5,16.7l15.8,2.6c0.9-5.1,2-10.3,3.3-15.3L62.3,126z"/>
	<path d="M56.7,159.3c-0.5,5.5-0.7,11.1-0.7,16.7c0,16.9,2.1,33.7,6.3,50l15.5-4c-3.9-15-5.8-30.5-5.8-46c0-5.1,0.2-10.3,0.6-15.3
		L56.7,159.3z"/>
	<g>
		<path d="M342.4,185.3c-5.1-2.5-10.2-4.4-15.4-5.6c-5.6-1.3-11.3-1.9-17-1.9c-19,0-39.4,7.4-56.8,14.7c-12.6,5.3-25,11.1-37.8,15.5
			c-18.1,6.2-37,9.7-54.5-0.3c-1.2-0.7-2.4-1.4-3.7-2.1c-0.1,0.1,10.7,12,16.9,16.3c20.5,14.4,45.7,13.3,68.5,5.4
			c14.1-4.9,27.4-11.5,40.9-17.6c11.9-5.5,24-10.8,36.7-14.1c7.2-1.9,14.4-3.1,21.7-3.1c3.3,0,6.6,0.2,9.9,0.8
			c1.3,0.2,2.5,0.4,3.8,0.6C355.6,193.7,346.8,187.5,342.4,185.3"/>
		<path d="M216.1,201c-1-4.9-1.3-10-0.8-15.1c0.6-5.9,2.1-11.5,6.1-15.9c2.9-3.2,6.1-6.2,9.6-8.7c8.6-5.9,17.4-11.4,26.1-17.1
			c0.4-0.3,1.4-0.2,1.8,0.1c2.8,1.7,5.5,3.6,8.2,5.4c7.1,4.7,14.2,9.2,21.2,14.1c3.1,2.2,5.6,4.9,7.6,8c4.9-0.8,9.7-1.2,14.3-1.2
			c5.5,0,10.8,0.6,16,1.7c-1.7-6.4-4.4-12.4-8.3-17.8c-6-8.4-14.1-14.5-22.7-20c-6.7-4.3-13.5-8.4-20-12.9
			c-6.6-4.5-12.1-10.2-15.3-17.7c-0.4-0.9-0.7-1.9-1.1-3c4.4-0.8,7.9-2.5,10.5-6c2.5-3.3,3.8-8.3,2.8-11.3
			c-2.4,8.5-7.3,12.2-13.8,10.7c-5.7-1.4-9.6-7-8.7-12.6c0.6-3.6,2.4-6.4,5.5-8.2c3.1-1.9,6.5-1.9,9.9-0.9c-5.1-3-10.3-3.2-15.3-0.3
			c-5.6,3.3-8.2,8.5-7.4,14.9c1,8.3,6.3,12.6,14.4,13.8c-0.2,0.6-0.3,1.2-0.5,1.7c-2,5.2-5.2,9.6-9.2,13.5c-4.7,4.5-10,8-15.4,11.4
			c-8.4,5.3-17.1,10.2-24.6,16.9c-7.9,7-13.8,15.3-16.8,25.6c-3.6,12.2-4.1,24.5-1.5,36.7c1.4,0,2.8-0.1,4.3-0.2
			C201,205.7,208.7,203.6,216.1,201"/>
		<path d="M320.4,203.1c-10.6,2.9-20.7,7.3-30.7,11.8c-11.6,5.2-23.1,10.7-34.9,15.6c-13.7,5.7-27.7,9.9-42.7,10.2
			c-0.4,0-0.8,0.2-1.2,0.3v0.5c20.5,14.4,42.8,18.4,66.6,10.1c23.4-8.2,38.2-25,45.5-48.5c-0.1-0.2-0.3-0.3-0.4-0.5
			C321.8,202.8,321.1,202.9,320.4,203.1"/>
	</g>
</g>
</svg>
