<?xml version="1.0" encoding="utf-8"?>
<!-- Generator: Adobe Illustrator 27.0.0, SVG Export Plug-In . SVG Version: 6.00 Build 0)  -->
<svg version="1.1" id="Layer_1" xmlns="http://www.w3.org/2000/svg" xmlns:xlink="http://www.w3.org/1999/xlink" x="0px" y="0px"
	 viewBox="0 0 200 200" style="enable-background:new 0 0 200 200;" xml:space="preserve">
<style type="text/css">
	.st0{fill:#828282;}
</style>
<g>
	<path class="st0" d="M100,154.9c-7.6,0-14.7-1.4-21.4-4.3s-12.4-6.9-17.4-11.9s-9-10.8-11.9-17.4c-2.8-6.7-4.3-13.7-4.3-21.4
		c0-7.6,1.4-14.7,4.3-21.4c2.9-6.7,6.9-12.4,11.9-17.4s10.8-9,17.4-11.9c6.7-2.8,13.7-4.3,21.4-4.3c7.6,0,14.7,1.4,21.4,4.3
		c6.7,2.9,12.4,6.9,17.4,11.9s9,10.8,11.9,17.4c2.8,6.7,4.3,13.7,4.3,21.4c0,7.6-1.4,14.7-4.3,21.4c-2.9,6.7-6.9,12.4-11.9,17.4
		s-10.8,9-17.4,11.9C114.8,153.4,107.7,154.9,100,154.9z M100,52c-6.6,0-12.8,1.3-18.7,3.8c-5.8,2.6-10.9,6-15.2,10.4
		c-4.3,4.3-7.8,9.4-10.4,15.3c-2.5,5.8-3.8,12.1-3.8,18.7s1.3,12.8,3.8,18.7c2.6,5.8,6,10.9,10.4,15.2c4.3,4.3,9.4,7.8,15.3,10.4
		c5.8,2.5,12.1,3.8,18.7,3.8c6.6,0,12.8-1.3,18.7-3.8c5.8-2.6,10.9-6,15.2-10.4c4.3-4.3,7.8-9.4,10.4-15.2
		c2.5-5.8,3.8-12.1,3.8-18.7c0-6.6-1.3-12.8-3.8-18.7c-2.6-5.8-6-10.9-10.4-15.2c-4.3-4.3-9.4-7.8-15.3-10.4
		C112.8,53.3,106.6,52,100,52z M90.7,122.2c-2.9-1.2-5.6-2.9-8-5.3c-2.3-2.3-3.9-4.9-5.2-7.8c-1.2-2.9-1.8-6-1.8-9.2
		c0-3.1,0.6-6.2,1.8-9.2c1.2-2.9,2.9-5.5,5.2-7.8c2.4-2.4,5.1-4.1,8-5.4c2.9-1.2,5.9-1.7,9-1.7c3,0,6,0.5,9,1.7s5.6,3,7.9,5.4
		c0.8,0.6,1.1,1.4,1.1,2.4c0,1-0.3,1.7-1.1,2.4c-0.6,0.8-1.4,1.1-2.4,1.1c-1,0-1.7-0.3-2.5-1.1c-3.2-3.2-7.3-5-12-5
		c-4.8,0-8.7,1.6-12.1,5c-1.6,1.6-2.9,3.6-3.8,5.6c-0.9,2.2-1.3,4.3-1.3,6.6s0.4,4.5,1.3,6.6c0.9,2.2,2.2,4,3.8,5.6
		c3.3,3.2,7.4,5,12.1,5c4.8,0,8.7-1.6,12-5c0.8-0.8,1.5-1.1,2.5-1.1s1.7,0.3,2.4,1.1c0.8,0.6,1.1,1.4,1.1,2.4c0,1-0.3,1.7-1.1,2.4
		c-2.4,2.4-5,4.1-7.9,5.3c-2.9,1.2-5.9,1.7-9,1.7C96.7,124.1,93.6,123.4,90.7,122.2z"/>
</g>
</svg>
