<?xml version="1.0" encoding="utf-8"?>
<!-- Generator: Adobe Illustrator 27.0.0, SVG Export Plug-In . SVG Version: 6.00 Build 0)  -->
<svg version="1.1" id="Layer_1" xmlns="http://www.w3.org/2000/svg" xmlns:xlink="http://www.w3.org/1999/xlink" x="0px" y="0px"
	 viewBox="0 0 200 200" style="enable-background:new 0 0 200 200;" xml:space="preserve">
<style type="text/css">
	.st0{fill:#828282;}
</style>
<g>
	<path class="st0" d="M67.3,147.2c-6.1-0.9-11.5-2.2-16.3-3.9s-8.6-3.8-11.5-6.3c-3-2.5-4.4-5.5-4.4-8.7v-73c0-3.4,1.5-6.3,4.4-8.9
		c2.9-2.5,6.7-4.6,11.5-6.3c4.8-1.7,10.2-3,16.3-3.8c6.1-0.8,12.3-1.3,18.5-1.3c6.3,0,12.4,0.4,18.5,1.3c6.1,0.8,11.5,2.1,16.2,3.9
		c4.7,1.7,8.6,3.8,11.5,6.3s4.4,5.5,4.4,8.9v50.3c4.7,1.7,8.6,4.6,11.7,8.7c3,4.1,4.6,8.9,4.6,14.2c0,2.6-0.4,5.1-1.1,7.4
		c-0.8,2.3-1.9,4.5-3.3,6.5l15.3,15.5c0.8,0.8,1.3,1.7,1.3,2.8s-0.4,2-1.3,2.8c-0.3,0.4-0.8,0.7-1.3,1c-0.5,0.2-1,0.3-1.5,0.3
		s-1-0.1-1.5-0.3s-0.9-0.5-1.3-1l-15.5-15.3c-2,1.4-4.2,2.5-6.7,3.3c-2.4,0.8-4.9,1.1-7.5,1.1c-3.2,0-6.3-0.6-9.1-1.8
		c-2.9-1.2-5.5-2.8-7.7-4.9c-3.8,0.9-7.9,1.6-12.3,2c-4.4,0.4-8.9,0.6-13.4,0.6C79.5,148.5,73.4,148.1,67.3,147.2z M67.5,44.5
		c-5.3,0.8-9.8,1.9-13.4,3.2c-3.6,1.3-6.3,2.6-8.2,4.1c-1.9,1.4-2.8,2.5-2.8,3.5s0.9,2.2,2.8,3.7c1.9,1.4,4.6,2.7,8.2,3.9
		c3.6,1.3,8.1,2.4,13.4,3.3c5.2,0.8,11.3,1.3,18.3,1.3c6.9,0,13-0.5,18.3-1.4c5.3-0.8,9.8-1.9,13.4-3.2c3.6-1.3,6.3-2.6,8.2-4.1
		c1.9-1.4,2.8-2.5,2.8-3.6c0-1-0.9-2.2-2.8-3.7c-1.9-1.4-4.6-2.7-8.2-3.9c-3.6-1.3-8.1-2.4-13.4-3.3C98.9,43.5,92.8,43,85.8,43
		C78.9,43.1,72.8,43.5,67.5,44.5z M43.2,79.6c0,1,0.9,2.2,2.8,3.7c1.9,1.4,4.6,2.7,8.2,3.9c3.6,1.3,8.1,2.4,13.4,3.3
		c5.2,0.8,11.3,1.3,18.3,1.3c6.9,0,13-0.5,18.3-1.4c5.3-0.8,9.8-1.9,13.4-3.2c3.6-1.3,6.3-2.6,8.2-4.1c1.9-1.4,2.8-2.5,2.8-3.5V66.8
		c-2.4,1.4-5.2,2.7-8.4,3.8c-3.2,1.1-6.7,2-10.3,2.7c-3.7,0.7-7.5,1.3-11.6,1.7c-4.1,0.3-8.2,0.5-12.3,0.5s-8.2-0.2-12.3-0.5
		c-4.1-0.4-7.9-1-11.6-1.7c-3.7-0.7-7.1-1.6-10.3-2.7c-3.2-1.1-6-2.4-8.4-3.8v12.8H43.2z M43.2,103.9c0,1,0.9,2.2,2.8,3.7
		c1.9,1.4,4.6,2.7,8.2,3.9c3.6,1.3,8.1,2.4,13.4,3.3c5.2,0.8,11.3,1.3,18.3,1.3c4.1,0,8-0.2,11.9-0.6c3.9-0.4,7.6-1,11.2-1.7
		c2.3-3,5.1-5.5,8.5-7.2c3.4-1.8,7.1-2.7,11-2.7V91.1c-2.4,1.4-5.2,2.7-8.4,3.8c-3.2,1.1-6.7,2-10.3,2.7c-3.7,0.7-7.5,1.3-11.6,1.7
		c-4.1,0.3-8.2,0.5-12.3,0.5s-8.2-0.2-12.3-0.5c-4.1-0.4-7.9-1-11.6-1.7c-3.7-0.7-7.1-1.6-10.3-2.7c-3.2-1.1-6-2.4-8.4-3.8v12.8
		H43.2z M43.2,128.2c0,1,0.9,2.2,2.8,3.7c1.9,1.4,4.6,2.7,8.2,3.9c3.6,1.3,8.1,2.4,13.4,3.3c5.2,0.8,11.3,1.3,18.3,1.3
		c3.6,0,7.2-0.1,10.6-0.4c3.5-0.3,6.8-0.7,10-1.3c-0.8-1.7-1.4-3.4-1.8-5.1c-0.4-1.7-0.6-3.5-0.6-5.3c0-0.9,0-1.8,0.1-2.7
		c0.1-0.9,0.3-1.8,0.5-2.7c-3,0.5-6,0.9-9.3,1.1c-3.2,0.2-6.4,0.3-9.6,0.3c-4.1,0-8.2-0.2-12.3-0.5c-4.1-0.4-7.9-1-11.6-1.7
		c-3.7-0.7-7.1-1.6-10.3-2.7c-3.2-1.1-6-2.4-8.4-3.8L43.2,128.2L43.2,128.2z M139.9,116.8c-3.2-3.2-7-4.8-11.5-4.8
		s-8.3,1.6-11.5,4.8c-3.2,3.2-4.8,7-4.8,11.5s1.6,8.3,4.8,11.5s7,4.8,11.5,4.8s8.3-1.6,11.5-4.8s4.8-7,4.8-11.5
		C144.6,123.8,143,120,139.9,116.8z"/>
</g>
</svg>
