<?xml version="1.0" encoding="utf-8"?>
<!-- Generator: Adobe Illustrator 27.0.0, SVG Export Plug-In . SVG Version: 6.00 Build 0)  -->
<svg version="1.1" id="Layer_1" xmlns="http://www.w3.org/2000/svg" xmlns:xlink="http://www.w3.org/1999/xlink" x="0px" y="0px"
	 viewBox="0 0 200 200" style="enable-background:new 0 0 200 200;" xml:space="preserve">
<style type="text/css">
	.st0{fill:#828282;}
</style>
<g>
	<path class="st0" d="M43.7,46.5c2.9-2.5,6.7-4.6,11.5-6.3c4.8-1.7,10.2-3,16.3-3.8c6.1-0.8,12.3-1.3,18.5-1.3
		c6.3,0,12.4,0.4,18.5,1.3c6.1,0.8,11.5,2.1,16.2,3.9c4.7,1.7,8.6,3.8,11.5,6.3s4.4,5.5,4.4,8.9v38.8c2.5,1.4,4.4,3.3,5.9,5.7
		c1.5,2.5,2.2,5.2,2.2,8.2v16.2h12.2v40.6h-56.8v-17c-2.4,0.3-4.7,0.4-7,0.6c-2.3,0.1-4.7,0.2-7.2,0.2c-6.3,0-12.4-0.4-18.5-1.3
		c-6.1-0.9-11.5-2.2-16.3-3.9s-8.6-3.8-11.5-6.3c-3-2.5-4.4-5.5-4.4-8.7v-73C39.2,52,40.7,49,43.7,46.5z M71.7,44.6
		c-5.3,0.8-9.8,1.9-13.4,3.2c-3.6,1.3-6.3,2.6-8.2,4.1c-1.8,1.3-2.8,2.5-2.8,3.5s0.9,2.2,2.8,3.7c1.9,1.4,4.6,2.7,8.2,3.9
		c3.6,1.3,8.1,2.4,13.4,3.3c5.2,0.8,11.3,1.3,18.3,1.3c6.9,0,13-0.5,18.3-1.4c5.3-0.8,9.8-1.9,13.4-3.2c3.6-1.3,6.3-2.6,8.2-4.1
		c1.9-1.4,2.8-2.5,2.8-3.5s-0.9-2.2-2.8-3.7c-1.9-1.4-4.6-2.7-8.2-3.9c-3.6-1.3-8.1-2.4-13.4-3.3c-5.2-0.8-11.3-1.3-18.3-1.3
		C83,43.2,76.9,43.7,71.7,44.6z M108.2,90.5c5.3-0.8,9.8-1.9,13.4-3.2c3.6-1.3,6.3-2.6,8.2-4.1c1.9-1.4,2.8-2.5,2.8-3.6V66.9
		c-2.4,1.4-5.2,2.7-8.4,3.8c-3.2,1.1-6.7,2-10.3,2.7c-3.7,0.7-7.5,1.3-11.6,1.7c-4.1,0.3-8.2,0.5-12.3,0.5c-4.1,0-8.2-0.2-12.3-0.5
		c-4.1-0.4-7.9-1-11.6-1.7c-3.7-0.7-7.1-1.6-10.3-2.7c-3.2-1.1-6-2.4-8.4-3.8v12.8c0,1,0.9,2.2,2.8,3.7c1.9,1.4,4.6,2.7,8.2,3.9
		c3.6,1.3,8.1,2.4,13.4,3.3c5.2,0.8,11.3,1.3,18.3,1.3C96.9,91.9,102.9,91.4,108.2,90.5z M47.3,104.1c0,1,0.9,2.2,2.8,3.7
		c1.9,1.4,4.6,2.7,8.2,3.9c3.6,1.3,8.1,2.4,13.4,3.3c5.2,0.8,11.3,1.3,18.3,1.3c4.7,0,9.4-0.3,13.9-0.8c4.6-0.5,8.7-1.3,12.4-2.2
		v-5.2c0-2.5,0.5-4.9,1.6-7c1.1-2.2,2.5-4,4.2-5.4c-4.6,1.4-9.7,2.5-15.3,3.2c-5.5,0.7-11.2,1.1-16.9,1.1c-4.1,0-8.2-0.2-12.3-0.5
		c-4.1-0.4-7.9-1-11.6-1.7c-3.7-0.7-7.1-1.6-10.3-2.7c-3.2-1.1-6-2.4-8.4-3.8C47.3,91.2,47.3,104.1,47.3,104.1z M97.1,140.2
		c2.3-0.2,4.7-0.3,7-0.5v-15.5h12.2v-2.8c-4,0.8-8.2,1.5-12.7,2s-9,0.8-13.7,0.8c-4.1,0-8.2-0.2-12.3-0.5c-4.1-0.4-7.9-1-11.6-1.7
		c-3.7-0.7-7.1-1.6-10.3-2.7c-3.2-1.1-6-2.4-8.4-3.8v12.8c0,1,0.9,2.2,2.8,3.7c1.9,1.4,4.6,2.7,8.2,3.9c3.6,1.3,8.1,2.4,13.4,3.3
		c5.2,0.8,11.3,1.3,18.3,1.3C92.4,140.6,94.8,140.4,97.1,140.2z M152.8,132.4h-40.6v24.3h40.6V132.4z M140.6,124.4v-16.3
		c0-2.2-0.8-4.1-2.4-5.7c-1.6-1.6-3.5-2.4-5.7-2.4s-4.1,0.8-5.7,2.4c-1.6,1.6-2.4,3.5-2.4,5.7v16.2h16.2V124.4z M129.7,151.6
		c-0.8-0.8-1.2-1.8-1.2-2.9v-8.1c0-1.1,0.4-2,1.2-2.9c0.8-0.8,1.8-1.2,2.9-1.2c1.1,0,2,0.4,2.9,1.2c0.8,0.8,1.2,1.8,1.2,2.9v8.1
		c0,1.1-0.4,2-1.2,2.9c-0.8,0.8-1.8,1.2-2.9,1.2C131.4,152.8,130.5,152.4,129.7,151.6z M132,91.9c0.2,0,0.4,0,0.6,0v-0.8
		c-0.2,0.2-0.4,0.3-0.6,0.4c-0.2,0.1-0.4,0.2-0.7,0.3C131.5,91.9,131.7,91.9,132,91.9z"/>
</g>
</svg>
