<?xml version="1.0" encoding="utf-8"?>
<!-- Generator: Adobe Illustrator 27.0.0, SVG Export Plug-In . SVG Version: 6.00 Build 0)  -->
<svg version="1.1" id="Layer_1" xmlns="http://www.w3.org/2000/svg" xmlns:xlink="http://www.w3.org/1999/xlink" x="0px" y="0px"
	 viewBox="0 0 200 200" style="enable-background:new 0 0 200 200;" xml:space="preserve">
<style type="text/css">
	.st0{fill:#828282;}
</style>
<g>
	<path class="st0" d="M153.4,38.4c2.6,2.7,3.9,5.8,3.9,9.5v117.7l-14.1-12.4l-7.8-7.4L127,138l3.5,12.1H56.2c-3.7,0-6.9-1.3-9.5-3.9
		c-2.7-2.6-4-5.8-4-9.6V47.9c0-3.7,1.3-6.9,4-9.5c2.7-2.7,5.8-4,9.5-4h87.9C147.7,34.4,150.9,35.7,153.4,38.4z M118.7,120.1
		c7.3-0.3,13.9-3.6,20-10c0-10.5-3.1-23.3-9.4-38.2c-4.7-3.6-10.9-5.9-18.4-6.9l-0.9,1.1c5.5,1.7,11,4.5,16.3,8.3
		c-3.4-1.8-6.7-3.2-10.1-4.2c-3.3-1-6.5-1.7-9.6-2.1c-2.4-0.2-4.7-0.3-6.9-0.2c-2.3,0.1-4.4,0.2-6.3,0.4c-0.2,0-0.4,0-0.6,0.1
		s-0.4,0.1-0.6,0.1c-1.1,0.1-3,0.4-5.6,1c-2.6,0.6-5.7,1.6-9.1,3.1c-1.2,0.5-2.6,1.1-4,1.8c5.6-4,11.4-6.9,17.4-8.6L90.1,65
		c-7.5,1-13.6,3.3-18.4,6.9c-6.2,15-9.4,27.7-9.4,38.2c6,6.4,12.7,9.7,20,10c1.9-2.5,3.4-4.3,4.5-5.5c-4.2-1.2-8-3.8-11.5-7.7
		c0.6,0.4,1.2,0.8,1.8,1.1c0.1,0.1,0.2,0.2,0.3,0.2c0.1,0.1,0.2,0.2,0.3,0.2c0.1,0.1,0.2,0.1,0.3,0.1c0.8,0.5,1.6,0.9,2.4,1.3
		s1.6,0.7,2.4,1c1.3,0.5,2.8,1,4.4,1.5c1.6,0.5,3.3,0.9,5.1,1.2c2.5,0.5,5.1,0.8,8,0.9c2.9,0.1,5.9-0.2,9.1-0.8
		c1.5-0.3,3.1-0.7,4.7-1.2c1.6-0.5,3.2-1,4.8-1.8c1.1-0.4,2.3-0.9,3.6-1.5c1.3-0.6,2.6-1.4,3.9-2.3c-3.6,4-7.5,6.6-11.8,7.8
		C115.2,116,116.8,117.8,118.7,120.1z M93,91.5c1.3,1.4,1.9,3.2,1.9,5.2c0,1.9-0.6,3.6-1.9,5.1c-1.3,1.4-2.9,2.2-4.8,2.2
		c-1.7,0-3.3-0.7-4.6-2.2c-1.3-1.4-2-3.1-2-5.1s0.6-3.8,1.9-5.2c1.3-1.4,2.8-2.2,4.7-2.2C90.1,89.4,91.7,90.1,93,91.5z M116.9,91.5
		c1.3,1.4,2,3.2,2,5.2c0,1.9-0.7,3.6-2,5.1c-1.3,1.4-2.9,2.2-4.8,2.2c-1.8,0-3.4-0.7-4.7-2.2c-1.3-1.4-1.9-3.1-1.9-5.1
		s0.6-3.8,1.9-5.2c1.3-1.4,2.8-2.2,4.7-2.2C113.9,89.4,115.5,90.1,116.9,91.5z"/>
</g>
</svg>
