<?xml version="1.0" encoding="utf-8"?>
<!-- Generator: Adobe Illustrator 27.2.0, SVG Export Plug-In . SVG Version: 6.00 Build 0)  -->
<svg version="1.1" id="Capa_1" xmlns="http://www.w3.org/2000/svg" xmlns:xlink="http://www.w3.org/1999/xlink" x="0px" y="0px"
	 viewBox="0 0 512 512" style="enable-background:new 0 0 512 512;" xml:space="preserve">
<style type="text/css">
	.st0{fill:none;stroke:#000000;stroke-width:15;stroke-linecap:round;stroke-linejoin:round;stroke-miterlimit:10;}
</style>
<path class="st0" d="M468.3,406.6c20,0,36.2,16.2,36.2,36.2v25.4c0,20-16.2,36.2-36.2,36.2H173.2"/>
<path class="st0" d="M468.3,308.7c20,0,36.2,16.2,36.2,36.2v25.4c0,20-16.2,36.2-36.2,36.2H324.4"/>
<path class="st0" d="M336.1,308.7h132.2c20,0,36.2-16.2,36.2-36.2V247c0-20-16.2-36.2-36.2-36.2"/>
<line class="st0" x1="396.9" y1="210.8" x2="278.3" y2="210.8"/>
<path class="st0" d="M376.5,112.9h91.8c20,0,36.2,16.2,36.2,36.2v25.4c0,20-16.2,36.2-36.2,36.2h-36.3"/>
<circle class="st0" cx="173.2" cy="338.8" r="165.7"/>
<path class="st0" d="M99.1,433.9c20.4,16,46.1,25.5,74.1,25.5c66.5,0,120.5-54,120.5-120.5c0-66.5-53.9-120.5-120.5-120.5
	c-66.5,0-120.5,54-120.5,120.5c0,26,8.2,50.1,22.3,69.8"/>
<path class="st0" d="M188.2,173.8v-24.7c0-20,16.2-36.2,36.2-36.2h91.8"/>
<path class="st0" d="M372.7,158.1c0,8.3-6.7,15.1-15.1,15.1h-22.6c-8.3,0-15.1-6.7-15.1-15.1c0-17.9,0-61.3,0-77.7h-14.4
	c-13,0-19.9-15.4-11.2-25.1l37-41.1c8-8.9,21.9-8.9,29.9,0l37,41.1c8.7,9.7,1.8,25.1-11.2,25.1h-14.4
	C372.7,96.8,372.7,140.2,372.7,158.1z"/>
<g>
	<path d="M96.6,327.1v-12h97.3v12H96.6z M96.6,357.8v-12h97.3v12H96.6z M184.4,407.7c-15.2,0-28.1-3.1-38.8-9.3
		c-10.7-6.2-18.8-14.7-24.4-25.5c-5.6-10.8-8.3-23-8.2-36.6c0.4-14.3,3.3-26.8,8.9-37.5c5.6-10.7,13.6-19,24.1-25
		c10.5-6,23.3-9,38.4-9c6.6,0,13,0.7,19.2,2c6.2,1.3,12,3.4,17.3,6.1l-8.5,11.8c-4.1-2.1-8.5-3.7-13.3-4.7c-4.8-1-9.7-1.6-14.7-1.7
		c-12.1-0.1-22.2,2.4-30.2,7.3c-8,4.9-14.1,11.7-18.1,20.5c-4.1,8.7-6.1,18.8-6.1,30.1c0,11.6,2,21.8,6.1,30.4
		c4,8.7,10.1,15.4,18.1,20.2c8,4.8,18.1,7.3,30.2,7.3c10.2,0.2,19.6-1.9,28.2-6.4l8.4,11.6c-5.3,2.7-11.1,4.8-17.3,6.1
		C197.5,407,191,407.7,184.4,407.7z"/>
</g>
</svg>
