<?xml version="1.0" encoding="utf-8"?>
<!-- Generator: Adobe Illustrator 27.0.0, SVG Export Plug-In . SVG Version: 6.00 Build 0)  -->
<svg version="1.1" id="Layer_1" xmlns="http://www.w3.org/2000/svg" xmlns:xlink="http://www.w3.org/1999/xlink" x="0px" y="0px"
	 viewBox="0 0 200 200" style="enable-background:new 0 0 200 200;" xml:space="preserve">
<style type="text/css">
	.st0{fill:#828282;}
</style>
<g>
	<path class="st0" d="M100,43.7c7.8,0,15.1,1.5,21.9,4.4c6.8,3,12.8,7,17.9,12.1c5.1,5.1,9.1,11.1,12.1,17.9s4.4,14.2,4.4,21.9
		c0,7.8-1.5,15.1-4.4,21.9c-3,6.8-7,12.8-12.1,17.9c-5.1,5.1-11.1,9.1-17.9,12.1c-6.8,3-14.2,4.4-21.9,4.4c-7.8,0-15.1-1.5-21.9-4.4
		c-6.8-3-12.8-7-17.9-12.1s-9.2-11.1-12.1-17.9c-3-6.8-4.4-14.2-4.4-21.9c0-7.8,1.5-15.1,4.4-21.9c3-6.8,7-12.8,12.1-17.9
		s11.1-9.1,17.9-12.1S92.2,43.7,100,43.7z M115,99.8l1.3-12.3h-11v-7.2c0-1.4,0.3-2.2,1-2.7c0.7-0.4,1.4-0.6,2-0.6s3.2,0,7.7,0V65
		h-10.7c-6,0-9.9,1.7-11.8,5.2s-2.8,6.6-2.8,9.4v8h-7v12.3h7c0,4,0,8,0,12.2c0,4.1,0,7.8,0,11.2s0,6.1,0,8.2v3.3h14.5v-3.3
		c0-2.1,0-4.9,0-8.2c0-3.4,0-7.1,0-11.3c0-4.1,0-8.2,0-12h9.8V99.8z"/>
</g>
</svg>
