<svg fill="none" height="512" viewBox="0 0 24 24" width="512" xmlns="http://www.w3.org/2000/svg"><g fill="rgb(0,0,0)"><path clip-rule="evenodd" d="m12 3.53846c-4.67318 0-8.46154 3.78836-8.46154 8.46154 0 4.6732 3.78836 8.4615 8.46154 8.4615 4.6732 0 8.4615-3.7883 8.4615-8.4615 0-4.67318-3.7883-8.46154-8.4615-8.46154zm-10 8.46154c0-5.52285 4.47715-10 10-10 5.5228 0 10 4.47715 10 10 0 5.5228-4.4772 10-10 10-5.52285 0-10-4.4772-10-10z" fill-rule="evenodd"/><path clip-rule="evenodd" d="m12 8.15385c-.7081 0-1.2821.57399-1.2821 1.28205 0 .42483-.3443.7692-.76918.7692-.42484 0-.76923-.34437-.76923-.7692 0-1.55773 1.26281-2.82051 2.82051-2.82051s2.8205 1.26278 2.8205 2.82051c0 .56034-.1642 1.0847-.4474 1.5247-.1773.2757-.3847.5388-.5759.7765-.035.0434-.0693.086-.1031.1278-.1586.1963-.3043.3766-.4388.5615-.3319.4562-.4861.7989-.4861 1.1121 0 .4248-.3444.7692-.7692.7692s-.7692-.3444-.7692-.7692c0-.8198.4024-1.4977.7804-2.0172.1598-.2195.3348-.436.4939-.6329.0319-.0394.0632-.0781.0935-.1158.1899-.2361.3516-.4437.4808-.6444.1282-.19929.2027-.43593.2027-.6923 0-.70806-.574-1.28205-1.2821-1.28205z" fill-rule="evenodd"/><path d="m13.0256 16.6154c0 .5664-.4592 1.0256-1.0256 1.0256s-1.0256-.4592-1.0256-1.0256c0-.5665.4592-1.0257 1.0256-1.0257s1.0256.4592 1.0256 1.0257z"/></g></svg>