<?xml version="1.0" encoding="UTF-8"?>
<svg version="1.1" viewBox="0 0 682.67 682.67" xml:space="preserve" xmlns="http://www.w3.org/2000/svg"><defs><clipPath id="a"><path d="m0 512h512v-512h-512z"/></clipPath></defs><g transform="matrix(1.3333 0 0 -1.3333 0 682.67)"><g clip-path="url(#a)"><g transform="translate(483.42 231.27)"><path d="m0 0v0c-56.516 30.033-123.82 19.358-168.31-21.743" fill="none" stroke="#000" stroke-linecap="round" stroke-linejoin="round" stroke-miterlimit="10" stroke-width="20"/></g><g transform="translate(223.01 462)"><path d="m0 0v0c25.755-48.467 17.698-105.89-15.902-145.25" fill="none" stroke="#000" stroke-linecap="round" stroke-linejoin="round" stroke-miterlimit="10" stroke-width="20"/></g><g transform="translate(361.91 132.74)"><path d="m0 0-332.33-121.82c-11.626-4.262-22.919 7.03-18.657 18.656l121.82 332.33c3.656 9.973 16.424 12.788 23.935 5.277l210.51-210.51c7.511-7.511 4.696-20.278-5.277-23.934z" fill="none" stroke="#000" stroke-linecap="round" stroke-linejoin="round" stroke-miterlimit="10" stroke-width="20"/></g><g transform="translate(109.4 293.04)"><path d="m0 0 60.002-60.002" fill="none" stroke="#000" stroke-linecap="round" stroke-linejoin="round" stroke-miterlimit="10" stroke-width="20"/></g><g transform="translate(92.071 243.59)"><path d="m0 0 151.52-151.52" fill="none" stroke="#000" stroke-linecap="round" stroke-linejoin="round" stroke-miterlimit="10" stroke-width="20"/></g><g transform="translate(59.134 155.11)"><path d="m0 0 95.977-95.977" fill="none" stroke="#000" stroke-linecap="round" stroke-linejoin="round" stroke-miterlimit="10" stroke-width="20"/></g><g transform="translate(39.613 107.85)"><path d="m0 0 68.239-68.239" fill="none" stroke="#000" stroke-linecap="round" stroke-linejoin="round" stroke-miterlimit="10" stroke-width="20"/></g><g transform="translate(301.6 442.2)"><path d="m0 0v0c0 13.911 11.277 25.188 25.188 25.188v0c13.911 0 25.188 11.277 25.188 25.188" fill="none" stroke="#000" stroke-linecap="round" stroke-linejoin="round" stroke-miterlimit="10" stroke-width="20"/></g><g transform="translate(443 400.49)"><path d="m0 0c-14.548 0-26.341-11.793-26.341-26.341v0c0-14.548-11.794-26.342-26.341-26.342h-1e-3" fill="none" stroke="#000" stroke-linecap="round" stroke-linejoin="round" stroke-miterlimit="10" stroke-width="20"/></g><g transform="translate(502 318.52)"><path d="m0 0c0-12.15-9.85-22-22-22s-22 9.85-22 22 9.85 22 22 22 22-9.85 22-22z" fill="none" stroke="#000" stroke-linecap="round" stroke-linejoin="round" stroke-miterlimit="10" stroke-width="20"/></g><g transform="translate(337.11 374.15)"><path d="m0 0c0-12.15-9.85-22-22-22s-22 9.85-22 22 9.85 22 22 22 22-9.85 22-22z" fill="none" stroke="#000" stroke-linecap="round" stroke-linejoin="round" stroke-miterlimit="10" stroke-width="20"/></g><g transform="translate(150,480)"><path d="m0 0c0-12.15-9.85-22-22-22s-22 9.85-22 22 9.85 22 22 22 22-9.85 22-22z" fill="none" stroke="#000" stroke-linecap="round" stroke-linejoin="round" stroke-miterlimit="10" stroke-width="20"/></g><g transform="translate(454.86 144.44)"><path d="m0 0-9.428 9.428" fill="none" stroke="#000" stroke-linecap="round" stroke-linejoin="round" stroke-miterlimit="10" stroke-width="20"/></g><g transform="translate(492.57 106.73)"><path d="m0 0 9.428-9.428" fill="none" stroke="#000" stroke-linecap="round" stroke-linejoin="round" stroke-miterlimit="10" stroke-width="20"/></g><g transform="translate(492.57 144.44)"><path d="m0 0 9.428 9.428" fill="none" stroke="#000" stroke-linecap="round" stroke-linejoin="round" stroke-miterlimit="10" stroke-width="20"/></g><g transform="translate(454.86 106.73)"><path d="m0 0-9.428-9.428" fill="none" stroke="#000" stroke-linecap="round" stroke-linejoin="round" stroke-miterlimit="10" stroke-width="20"/></g><g transform="translate(492.57 492.57)"><path d="m0 0 9.428 9.428" fill="none" stroke="#000" stroke-linecap="round" stroke-linejoin="round" stroke-miterlimit="10" stroke-width="20"/></g><g transform="translate(454.86 454.86)"><path d="m0 0-9.428-9.428" fill="none" stroke="#000" stroke-linecap="round" stroke-linejoin="round" stroke-miterlimit="10" stroke-width="20"/></g><g transform="translate(492.57 454.86)"><path d="m0 0 9.428-9.428" fill="none" stroke="#000" stroke-linecap="round" stroke-linejoin="round" stroke-miterlimit="10" stroke-width="20"/></g><g transform="translate(454.86 492.57)"><path d="m0 0-9.428 9.428" fill="none" stroke="#000" stroke-linecap="round" stroke-linejoin="round" stroke-miterlimit="10" stroke-width="20"/></g><g transform="translate(201.22 201.22)"><path d="m0 0v0" fill="none" stroke="#000" stroke-linecap="round" stroke-linejoin="round" stroke-miterlimit="10" stroke-width="20"/></g><g transform="translate(233.04 169.4)"><path d="m0 0 60.002-60.002" fill="none" stroke="#000" stroke-linecap="round" stroke-linejoin="round" stroke-miterlimit="10" stroke-width="20"/></g><g transform="translate(284.87 238.99)"><path d="m0 0 33.458 33.458" fill="none" stroke="#000" stroke-linecap="round" stroke-linejoin="round" stroke-miterlimit="10" stroke-width="20"/></g><g transform="translate(354.19 308.31)"><path d="m0 0-7.25-7.25" fill="none" stroke="#000" stroke-linecap="round" stroke-linejoin="round" stroke-miterlimit="10" stroke-width="20"/></g></g></g></svg>
