<?xml version="1.0" encoding="utf-8"?>
<!-- Generator: Adobe Illustrator 27.2.0, SVG Export Plug-In . SVG Version: 6.00 Build 0)  -->
<svg version="1.1" id="Layer_1" xmlns="http://www.w3.org/2000/svg" xmlns:xlink="http://www.w3.org/1999/xlink" x="0px" y="0px"
	 viewBox="0 0 512 512" style="enable-background:new 0 0 512 512;" xml:space="preserve">
<style type="text/css">
	.st0{fill-rule:evenodd;clip-rule:evenodd;fill:#FFFFFF;}
</style>
<g transform="translate(-333)">
	<g id="Line">
		<path class="st0" d="M604.1,114.1c-4.7-0.8-9.6-1.2-14.5-1.2c-5.3,0-10.5,0.5-15.6,1.3c-4.1-7.8-9.2-15-15.3-21.3
			c-16.6-17.2-39.9-28-65.6-28c-50.3,0-91.1,40.8-91.1,91.1c0,29.3,13.9,55.4,35.4,72c-12.7,6.2-24.5,14.5-34.7,24.7
			c-24.1,24.1-37.7,56.8-37.7,90.9V368c0,26.5,21.5,48,48,48h47.4c0,26.5,21.5,48,48,48h161.2c26.5,0,48-21.5,48-48H765
			c26.5,0,48-21.5,48-48v-24.3c0-34.1-13.6-66.8-37.7-90.9c-10.2-10.2-21.9-18.5-34.7-24.7c21.5-16.7,35.4-42.8,35.4-72
			c0-50.3-40.8-91.1-91.1-91.1c-25.8,0-49.1,10.7-65.6,28C613.3,99.2,608.1,106.3,604.1,114.1L604.1,114.1z M685.6,391.7V416
			c0,8.8-7.2,16-16,16H508.4c-8.8,0-16-7.2-16-16v-24.3c0-25.6,10.2-50.2,28.3-68.3c18.1-18.1,42.7-28.3,68.3-28.3
			s50.2,10.2,68.3,28.3C675.4,341.5,685.6,366.1,685.6,391.7z M717.4,384H765c8.8,0,16-7.2,16-16c0-7.4,0-15.6,0-24.3
			c0-25.6-10.2-50.2-28.3-68.3c-18.1-18.1-42.7-28.3-68.3-28.3c0,0,0,0,0,0c-5.1,0-10.2,0.4-15.2,1.2c-6,10.8-14.2,20.2-23.9,27.8
			c12.7,6.2,24.5,14.5,34.7,24.7C702.2,323.1,715.5,352.7,717.4,384L717.4,384z M510.1,248.5c-5.4-0.9-10.9-1.4-16.5-1.4
			c0,0,0,0,0,0c-25.6,0-50.2,10.2-68.3,28.3c-18.1,18.1-28.3,42.7-28.3,68.3V368c0,8.8,7.2,16,16,16h47.6
			c1.9-31.3,15.1-60.9,37.4-83.2c10.4-10.4,22.4-18.8,35.4-25.1C524,268.3,516,259,510.1,248.5L510.1,248.5z M589.6,144.9
			c32.6,0,59.1,26.5,59.1,59.1c0,32.6-26.5,59.1-59.1,59.1s-59.1-26.5-59.1-59.1C530.5,171.4,557,144.9,589.6,144.9z M543.6,125.4
			c-2.3-3.7-4.9-7.2-8-10.3c-10.8-11.2-25.9-18.2-42.6-18.2c-32.6,0-59.1,26.5-59.1,59.1c0,32.6,26.5,59.1,59.1,59.1
			c2,0,4.1-0.1,6.1-0.3c-0.4-3.5-0.6-7.1-0.6-10.8C498.5,170.5,516.6,141.2,543.6,125.4L543.6,125.4z M680,214.9
			c1.6,0.1,3.3,0.2,4.9,0.2c32.6,0,59.1-26.5,59.1-59.1c0-32.6-26.5-59.1-59.1-59.1c-16.7,0-31.8,7-42.6,18.2
			c-2.9,3-5.4,6.3-7.6,9.8c27.4,15.7,45.9,45.2,45.9,79.1C680.6,207.7,680.4,211.3,680,214.9L680,214.9z"/>
	</g>
</g>
</svg>
