<?xml version="1.0" encoding="utf-8"?>
<!-- Generator: Adobe Illustrator 27.2.0, SVG Export Plug-In . SVG Version: 6.00 Build 0)  -->
<svg version="1.1" id="Layer_1" xmlns="http://www.w3.org/2000/svg" xmlns:xlink="http://www.w3.org/1999/xlink" x="0px" y="0px"
	 viewBox="0 0 512 512" style="enable-background:new 0 0 512 512;" xml:space="preserve">
<style type="text/css">
	.st0{fill:#FFFFFF;}
</style>
<g id="Layer_2_00000041978462658048137940000009699038263384290439_">
	<path class="st0" d="M481.3,143.4c-3.1-2.4-7.2-3.3-11-2.4l-49.1,12.6c-18.1-1-75.9-23.2-108.9-37.4l-0.7-0.3
		c-43.7-15.7-81.6-12.2-113.2,10.2c-42.1-14.4-96,16-112.6,26.4l-44.2-11.4c-6.8-1.8-13.8,2.3-15.6,9.1c-0.3,1.1-0.4,2.2-0.4,3.3
		v179.2c0,7.1,5.7,12.8,12.8,12.8h27.2L182,437.4c15.3,14.7,39.6,14.2,54.3-1.1c3.2-3.3,5.7-7.1,7.6-11.3c5.8,3.3,12.4,5.1,19,5.1
		c15.3,0,29.2-9.1,35.3-23.2c5.8,3.3,12.4,5.1,19,5.1c15.3,0,29.2-9.1,35.2-23.2c18.4,10.4,41.8,4,52.2-14.4c3.5-6.1,5.2-13,5-20.1
		l27.4-8.8h36.6c7.1,0,12.8-5.7,12.8-12.8V153.6C486.4,149.6,484.5,145.8,481.3,143.4z M51.2,170l22.9,5.9l-9.2,85.2L58.6,320h-7.4
		V170z M380.5,364.3c-5.1,4.9-13.1,4.9-18.1,0l-18.1-18.1l-72.4-72.4c-5.3-4.7-13.3-4.3-18.1,1c-4.4,4.8-4.4,12.2,0,17.1l72.4,72.6
		c4.9,5.1,4.8,13.2-0.3,18.1c-5,4.8-12.8,4.8-17.8,0L290,364.3L235.5,310c-5-5-13.1-5-18.1,0c-5,5-5,13.1,0,18.1l54.5,54.3
		c5.1,4.9,5.2,13,0.3,18.1c-4.9,5.1-13,5.2-18.1,0.3c-0.1-0.1-0.2-0.2-0.3-0.3l-54.1-54.3c-5-5-13-5-18,0c0,0,0,0,0,0
		c-2.4,2.4-3.8,5.6-3.7,9c0,3.4,1.3,6.7,3.7,9.1l36.2,36.2c5,5,5,13.1,0,18.1c-5.1,4.8-13,4.8-18.1,0c-0.4-0.4-0.7-0.7-1.1-1
		l-115-90.5l12.9-118.7l3.7-34.6c16.3-10.2,48.1-26.1,74.4-25.6c-7.8,9-14.8,18.8-20.9,29.1c-11.7,20-6,45.6,13,58.7
		c18.1,12.4,51.2,23.9,92.2-11.5l121.8,121.7C385.5,351.2,385.5,359.3,380.5,364.3z M400.6,330.4c-0.6-0.8-1.3-1.5-2-2.3
		L276.8,206.3c5.1-5.8,10.2-12.3,15.4-19.7c4.6-5.4,4-13.4-1.3-18.1c-5.4-4.6-13.4-4-18.1,1.3c-0.5,0.6-1,1.3-1.4,2
		c-22.7,32.2-56.7,65.8-90.1,43c-7.9-5.6-10.1-16.3-5.1-24.6c8.3-14.8,19.1-28.1,32.1-39.1c0.4-0.3,0.8-0.6,1.2-1
		c25.6-20.5,56.3-23.6,93.6-10.2c9.7,4.1,74.1,31.4,107.9,37.9l11.3,145.9L400.6,330.4z M460.8,320h-13.7L436,176.2l24.8-6.2V320z"
		/>
</g>
</svg>
