<?xml version="1.0" encoding="utf-8"?>
<!-- Generator: Adobe Illustrator 27.0.0, SVG Export Plug-In . SVG Version: 6.00 Build 0)  -->
<svg version="1.1" id="Layer_1" xmlns="http://www.w3.org/2000/svg" xmlns:xlink="http://www.w3.org/1999/xlink" x="0px" y="0px"
	 viewBox="0 0 200 200" style="enable-background:new 0 0 200 200;" xml:space="preserve">
<style type="text/css">
	.st0{fill:#828282;}
</style>
<g>
	<path class="st0" d="M147.6,52.6c3,3,5.2,6.5,6.8,10.5c1.6,4.1,2.3,8.5,2.3,13.3v47.2c0,4.9-0.8,9.4-2.3,13.6
		c-1.6,4.1-3.9,7.7-7,10.6c-3,2.9-6.5,5.1-10.5,6.6c-4.1,1.5-8.5,2.3-13.4,2.3H76.7c-4.6,0-9-0.7-13.1-2.2s-7.7-3.7-10.8-6.7
		c-3.2-3.1-5.6-6.8-7.2-10.9c-1.6-4.1-2.4-8.7-2.4-13.6V76.5c0-5,0.8-9.6,2.4-13.7c1.6-4.1,3.9-7.5,6.8-10.5s6.4-5.1,10.5-6.7
		c4.1-1.6,8.6-2.4,13.6-2.4h47.2c4.8,0,9.3,0.8,13.4,2.3C141.1,47.2,144.8,49.5,147.6,52.6z M146.9,123.6V76.5
		c0-3.4-0.6-6.5-1.6-9.3c-1.1-2.8-2.6-5.2-4.6-7.2c-2-2.1-4.5-3.7-7.3-4.7c-2.8-1-6-1.5-9.4-1.5H76.7c-3.5,0-6.6,0.5-9.5,1.5
		s-5.3,2.5-7.2,4.4c-2,2-3.6,4.5-4.6,7.3c-1.1,2.8-1.6,6-1.6,9.4v46.9c0,3.5,0.5,6.7,1.6,9.6c1.1,2.8,2.6,5.3,4.6,7.3
		c2.1,1.9,4.6,3.4,7.4,4.4c2.8,1,5.9,1.5,9.4,1.5h46.8c3.4,0,6.5-0.5,9.3-1.5c2.8-1,5.3-2.5,7.3-4.4c2.1-1.9,3.7-4.3,4.7-7.1
		s1.5-6,1.5-9.5H146.9z M100,70.5c4.1,0,7.9,0.8,11.4,2.3s6.7,3.6,9.3,6.3c2.7,2.7,4.8,5.8,6.3,9.3c1.5,3.6,2.3,7.4,2.3,11.4
		s-0.8,7.7-2.3,11.3c-1.5,3.6-3.6,6.7-6.2,9.3c-2.6,2.7-5.7,4.8-9.3,6.4c-3.6,1.5-7.5,2.3-11.5,2.3c-4.1,0-7.9-0.8-11.4-2.3
		s-6.7-3.6-9.3-6.3c-2.7-2.7-4.8-5.8-6.3-9.3s-2.3-7.4-2.3-11.4c0-4.1,0.8-7.9,2.3-11.4c1.6-3.6,3.7-6.8,6.4-9.4
		c2.7-2.6,5.8-4.7,9.3-6.2S96,70.5,100,70.5z M100,118.6c5.2,0,9.6-1.8,13.2-5.5s5.5-8.1,5.5-13.2c0-5.2-1.8-9.6-5.5-13.2
		s-8.1-5.5-13.2-5.5c-5.2,0-9.6,1.8-13.2,5.5s-5.5,8.1-5.5,13.2c0,5.2,1.8,9.6,5.5,13.2S94.8,118.6,100,118.6z M135.2,65.1
		c-1.3-1.3-2.9-1.9-4.8-1.9c-1.8,0-3.3,0.6-4.6,1.9c-1.3,1.3-2,2.8-2,4.7c0,1.9,0.7,3.4,2,4.8c1.3,1.3,2.9,2,4.6,2
		c1.9,0,3.4-0.7,4.8-2c1.3-1.3,2-2.9,2-4.8C137.1,67.9,136.5,66.3,135.2,65.1z"/>
</g>
</svg>
