<?xml version="1.0" encoding="utf-8"?>
<!-- Generator: Adobe Illustrator 27.0.0, SVG Export Plug-In . SVG Version: 6.00 Build 0)  -->
<svg version="1.1" id="Layer_1" xmlns="http://www.w3.org/2000/svg" xmlns:xlink="http://www.w3.org/1999/xlink" x="0px" y="0px"
	 viewBox="0 0 200 200" style="enable-background:new 0 0 200 200;" xml:space="preserve">
<style type="text/css">
	.st0{fill:#828282;}
</style>
<g>
	<path class="st0" d="M154.2,45.5c1.6,1.6,2.5,3.5,2.5,5.8v97.5c0,2.3-0.8,4.2-2.5,5.8s-3.6,2.4-5.9,2.4H51.8
		c-2.3,0-4.2-0.8-5.9-2.4c-1.6-1.6-2.5-3.5-2.5-5.8V51.2c0-2.3,0.8-4.2,2.5-5.8c1.6-1.6,3.6-2.4,5.9-2.4h96.5
		C150.6,43,152.6,43.9,154.2,45.5z M69.1,79.9c3,0,5.4-0.9,7.2-2.6c1.7-1.7,2.6-3.8,2.6-6.3c-0.1-2.5-1-4.6-2.7-6.3
		c-1.7-1.7-4-2.5-7-2.5c-2.9,0-5.2,0.8-7,2.5c-1.8,1.7-2.7,3.8-2.7,6.3s0.8,4.5,2.5,6.3c1.7,1.7,4,2.6,6.8,2.6H69.1z M77.7,87.1
		H60.6v51.3h17.1V87.1z M139.4,138.3v-29.4c0-7.9-1.9-13.8-5.6-17.6c-3.8-3.8-8.4-5.6-14-5.6c-4.6,0-8,1-10.3,2.9
		c-2.3,1.9-4,3.8-5.2,5.6v-7.2H87.1c0.1,1.2,0.1,4.5,0.1,10s0,11.3,0,17.4c0,6.1,0,11.6,0,16.5l-0.1,7.4h17.1v-28.7
		c0-0.8,0-1.5,0.1-2.3s0.3-1.4,0.5-1.9c0.6-1.5,1.6-2.9,3-4.2c1.4-1.3,3.3-2,5.7-2c3,0,5.2,1.1,6.6,3.2c1.4,2.1,2,4.9,2,8.4v27.5
		H139.4z M104.1,94.6c0-0.1,0-0.2,0.1-0.3L104.1,94.6L104.1,94.6z"/>
</g>
</svg>
