<svg id="Layer_1" height="512" viewBox="0 0 512 512" width="512" xmlns="http://www.w3.org/2000/svg" data-name="Layer 1"><path d="m463.205 130.861c-.649-23.558-1.211-43.9-1.211-56.841a12 12 0 0 0 -11.094-11.965 431.341 431.341 0 0 1 -190.595-60.355 12 12 0 0 0 -13.075.486c-39.645 27.931-102.624 47.544-187.191 58.298a12 12 0 0 0 -10.486 11.864c-.042 12.509-.486 32.377-1 55.383-2.15 96.154-3.4 177.528 3.08 199.435 10.775 36.422 33.2 70.469 66.64 101.2 32.762 30.1 77.087 57.884 131.744 82.575a12 12 0 0 0 9.873 0c58.51-26.382 105.01-55.819 138.194-87.491 34.022-32.467 55.145-68.251 62.779-106.359 6.574-32.844 4.127-121.497 2.342-186.23zm-25.874 181.518c-13.277 66.27-74.625 124.94-182.368 174.435-100.7-46.39-161.358-102.378-180.316-166.457-5.945-20.093-3.539-127.76-2.1-192.089.392-17.52.742-33.23.908-45.356 79.089-10.96 139.928-30.019 181.13-56.732a454.392 454.392 0 0 0 183.5 58.842c.187 12.511.631 28.583 1.126 46.5 1.658 60.002 4.159 150.678-1.88 180.857zm-123.71-113.413h-.686v-16.736a40.783 40.783 0 0 0 -40.735-40.736h-32.4a40.783 40.783 0 0 0 -40.737 40.736v16.736h-.687a27.89 27.89 0 0 0 -27.858 27.859v80.353a27.89 27.89 0 0 0 27.858 27.859h115.245a27.892 27.892 0 0 0 27.86-27.859v-80.353a27.891 27.891 0 0 0 -27.86-27.859zm-90.556-16.736a16.756 16.756 0 0 1 16.735-16.736h32.4a16.756 16.756 0 0 1 16.737 16.736v16.736h-65.87zm94.416 124.948a3.911 3.911 0 0 1 -3.86 3.859h-115.243a3.91 3.91 0 0 1 -3.858-3.859v-80.353a3.91 3.91 0 0 1 3.858-3.859h115.243a3.911 3.911 0 0 1 3.86 3.859z"/></svg>