<?xml version="1.0" encoding="utf-8"?>
<!-- Generator: Adobe Illustrator 27.2.0, SVG Export Plug-In . SVG Version: 6.00 Build 0)  -->
<svg version="1.1" id="Layer_1" xmlns="http://www.w3.org/2000/svg" xmlns:xlink="http://www.w3.org/1999/xlink" x="0px" y="0px"
	 viewBox="0 0 831.1 183.9" style="enable-background:new 0 0 831.1 183.9;" xml:space="preserve">
<style type="text/css">
	.st0{fill:url(#SVGID_1_);}
	.st1{fill:#FFFFFF;}
</style>
<linearGradient id="SVGID_1_" gradientUnits="userSpaceOnUse" x1="187.6734" y1="126.4293" x2="-7.8955" y2="143.6305">
	<stop  offset="0" style="stop-color:#D9E026"/>
	<stop  offset="1" style="stop-color:#046937"/>
</linearGradient>
<path class="st0" d="M183.4,114c-5-2.5-10.1-4.3-15.3-5.5c-5.5-1.3-11.2-1.9-16.9-1.9c-18.8,0-39,7.4-56.2,14.6
	c-12.5,5.2-24.7,11-37.5,15.4c-17.9,6.2-36.6,9.6-53.9-0.3c-1.2-0.7-2.4-1.4-3.6-2.1c-0.1,0.1,10.6,11.9,16.7,16.2
	c20.3,14.3,45.3,13.2,67.8,5.3c13.9-4.8,27.1-11.4,40.5-17.5c11.8-5.4,23.7-10.7,36.4-14c7.1-1.8,14.2-3,21.5-3
	c3.2,0,6.5,0.2,9.8,0.8c1.3,0.2,2.5,0.4,3.8,0.6C196.4,122.4,187.7,116.2,183.4,114"/>
<path class="st1" d="M58.3,129.5c-1-4.9-1.3-9.9-0.8-15c0.6-5.9,2.1-11.4,6-15.8c2.8-3.2,6-6.2,9.5-8.6c8.5-5.9,17.2-11.3,25.9-16.9
	c0.4-0.3,1.3-0.2,1.8,0.1c2.7,1.7,5.4,3.6,8.1,5.4c7,4.6,14.1,9.1,21,14c3.1,2.2,5.6,4.8,7.5,7.9c4.9-0.8,9.6-1.2,14.2-1.2
	c5.4,0,10.7,0.6,15.9,1.7c-1.7-6.3-4.3-12.3-8.2-17.7c-6-8.4-13.9-14.4-22.4-19.8c-6.6-4.2-13.3-8.3-19.8-12.8
	c-6.5-4.5-12-10.1-15.2-17.5c-0.4-0.9-0.7-1.9-1.1-3c4.3-0.8,7.8-2.5,10.4-5.9c2.5-3.3,3.8-8.3,2.8-11.2
	c-2.4,8.4-7.2,12.1-13.6,10.6c-5.7-1.4-9.5-7-8.6-12.5c0.6-3.6,2.4-6.3,5.5-8.1c3.1-1.8,6.4-1.9,9.8-0.9c-5-3-10.1-3.2-15.2-0.2
	c-5.6,3.3-8.1,8.4-7.3,14.8c1,8.2,6.2,12.5,14.3,13.6c-0.2,0.6-0.3,1.1-0.5,1.6c-2,5.2-5.2,9.5-9.2,13.4c-4.6,4.4-9.9,7.9-15.3,11.3
	C65.4,62,56.9,66.9,49.4,73.5c-7.8,6.9-13.6,15.2-16.6,25.3c-3.6,12.1-4.1,24.2-1.5,36.4c1.4,0,2.8-0.1,4.2-0.2
	C43.4,134.2,51,132.1,58.3,129.5"/>
<path class="st1" d="M161.5,131.7c-10.5,2.9-20.5,7.2-30.4,11.7c-11.5,5.2-22.9,10.6-34.5,15.5c-13.5,5.7-27.5,9.8-42.3,10.1
	c-0.4,0-0.8,0.2-1.1,0.3v0.5c20.3,14.2,42.4,18.2,65.9,10c23.2-8.1,37.9-24.7,45.1-48c-0.1-0.2-0.3-0.3-0.4-0.5
	C163,131.3,162.3,131.5,161.5,131.7"/>
<path class="st1" d="M272,152.9c-20.7,0-36-16.3-36-37.8c0-21.8,15.3-36.3,36-36.3h40.1v12.9H272c-13.2,0-23,9.9-23,23.9
	c0,14,9.7,24.2,23,24.2h40.1v12.9H272z"/>
<path class="st1" d="M399.8,152.9l-11.1-18.6h-35l6.1-10.5h22.7L366,96.1l-33.6,56.8h-14.8L360.2,82c1.5-2.6,3.5-4.2,6.3-4.2
	c2.9,0,4.7,1.6,6.2,4.2l42.7,70.9H399.8z"/>
<path class="st1" d="M424.1,152.9v-74H437v74H424.1z"/>
<path class="st1" d="M455.6,152.9c-3.9,0-7.3-2.2-7.3-6.6c0-1.9,0.9-3.8,2.6-5.5l49.2-49.6h-50.9V78.9h64.8c3.8,0,7.3,2.2,7.3,6.6
	c0,1.9-0.9,3.8-2.6,5.5l-49.2,49.6H521v12.3H455.6z"/>
<g>
	<path class="st1" d="M570.5,153.5c-21.3,0-37.1-16.8-37.1-39c0-22.5,15.8-37.4,37.1-37.4h41.4v13.3h-41.4
		c-13.7,0-23.7,10.2-23.7,24.7c0,14.4,10,25,23.7,25h41.4v13.3H570.5z"/>
	<path class="st1" d="M657.6,153.5c-21.3,0-37.1-16.8-37.1-39c0-22.5,15.8-37.4,37.1-37.4h18.6c22.1,0,37.4,15.2,37.4,37.4
		c0,22.2-15.6,39-37.4,39H657.6z M676.2,140.2c14.1,0,24-10.6,24-25c0-14.4-10-24.7-24-24.7h-18.6c-13.7,0-23.7,10.2-23.7,24.7
		c0,14.4,10,25,23.7,25H676.2z"/>
	<path class="st1" d="M725.1,153.5V77.2h13.3v76.3H725.1z"/>
	<path class="st1" d="M764.8,97.7v55.9h-12.7V84.2c0-4.9,2.6-8,6.8-8c2,0,3.7,0.7,5.7,2.7l53.9,53.4V76.6h12.7v69.9c0,5-2.7,8-6.6,8
		c-2.2,0-4.2-0.9-6.1-2.8L764.8,97.7z"/>
</g>
</svg>
