<?xml version="1.0" encoding="utf-8"?>
<!-- Generator: Adobe Illustrator 27.2.0, SVG Export Plug-In . SVG Version: 6.00 Build 0)  -->
<svg version="1.1" id="Layer_1" xmlns="http://www.w3.org/2000/svg" xmlns:xlink="http://www.w3.org/1999/xlink" x="0px" y="0px"
	 viewBox="0 0 386.7 384.7" style="enable-background:new 0 0 386.7 384.7;" xml:space="preserve">
<style type="text/css">
	.st0{fill:#FFFFFF;}
	.st1{fill:url(#SVGID_1_);}
	.st2{enable-background:new    ;}
</style>
<path class="st0" d="M145.5,161.5c-1.2-5.9-1.5-11.8-0.9-17.9c0.7-7,2.5-13.7,7.2-18.9c3.4-3.8,7.2-7.4,11.4-10.3
	c10.2-7,20.6-13.6,31-20.3c0.5-0.3,1.6-0.2,2.2,0.1c3.3,2.1,6.5,4.3,9.8,6.4c8.4,5.5,16.9,10.9,25.1,16.8c3.7,2.6,6.7,5.8,9,9.5
	c5.8-0.9,11.5-1.4,17-1.4c6.5,0,12.9,0.7,19,2c-2-7.6-5.2-14.7-9.9-21.2c-7.2-10-16.7-17.3-26.9-23.8c-7.9-5.1-16-10-23.7-15.3
	c-7.8-5.4-14.3-12.1-18.2-21c-0.5-1.1-0.9-2.3-1.3-3.6c5.2-1,9.4-3,12.5-7.1c3-3.9,4.6-9.9,3.4-13.4c-2.9,10.1-8.6,14.5-16.3,12.7
	c-6.8-1.6-11.4-8.4-10.3-15c0.7-4.3,2.9-7.6,6.5-9.7c3.7-2.2,7.7-2.3,11.7-1c-6-3.6-12.2-3.8-18.2-0.3c-6.7,3.9-9.8,10.1-8.8,17.7
	c1.2,9.8,7.5,14.9,17.1,16.3c-0.2,0.8-0.4,1.4-0.6,2c-2.4,6.2-6.2,11.4-11,16c-5.5,5.3-11.9,9.5-18.3,13.6
	c-10,6.3-20.3,12.1-29.2,20c-9.4,8.3-16.4,18.2-20,30.4c-4.3,14.5-4.9,29.1-1.8,43.6c1.7,0,3.3-0.1,5.1-0.2
	C127.6,167.1,136.8,164.6,145.5,161.5"/>
<path class="st0" d="M269.3,164c-12.6,3.5-24.6,8.6-36.5,14c-13.8,6.2-27.5,12.7-41.4,18.5c-16.2,6.8-32.9,11.8-50.7,12.1
	c-0.5,0-0.9,0.2-1.4,0.3v0.6c24.3,17.1,50.8,21.8,79.1,12c27.8-9.7,45.4-29.6,54-57.5c-0.2-0.2-0.3-0.4-0.5-0.6
	C271.1,163.6,270.2,163.8,269.3,164"/>
<linearGradient id="SVGID_1_" gradientUnits="userSpaceOnUse" x1="300.6786" y1="226.0341" x2="66.1762" y2="205.4084" gradientTransform="matrix(1 0 0 -1 0 383.8898)">
	<stop  offset="0" style="stop-color:#D7DF2B"/>
	<stop  offset="1" style="stop-color:#056A37"/>
</linearGradient>
<path class="st1" d="M295.5,142.9c-6-3-12.1-5.2-18.3-6.6c-6.6-1.6-13.4-2.3-20.2-2.3c-22.5,0-46.8,8.8-67.4,17.5
	c-14.9,6.3-29.7,13.2-44.9,18.4c-21.4,7.4-43.9,11.5-64.7-0.3c-1.5-0.8-2.9-1.7-4.4-2.5c-0.1,0.1,12.7,14.2,20,19.4
	c24.3,17.1,54.3,15.8,81.3,6.4c16.7-5.8,32.5-13.6,48.5-21c14.2-6.5,28.4-12.8,43.6-16.8c8.5-2.2,17.1-3.6,25.7-3.6
	c3.9,0,7.8,0.3,11.8,0.9c1.5,0.2,3,0.5,4.5,0.7C311.2,152.9,300.7,145.5,295.5,142.9"/>
<g class="st2">
	<path class="st0" d="M125.8,312.5c-12.6,0-21.9-9.9-21.9-23c0-13.3,9.3-22.1,21.9-22.1h24.5v7.9h-24.5c-8.1,0-14,6-14,14.6
		c0,8.5,5.9,14.8,14,14.8h24.5v7.9H125.8z"/>
	<path class="st0" d="M203.7,312.5l-6.8-11.4h-21.4l3.7-6.4h13.8l-10.1-16.9l-20.5,34.6h-9l25.9-43.2c0.9-1.6,2.1-2.5,3.8-2.5
		c1.7,0,2.9,1,3.8,2.5l26,43.2H203.7z"/>
	<path class="st0" d="M218.5,312.5v-45.1h7.9v45.1H218.5z"/>
	<path class="st0" d="M237.7,312.5c-2.4,0-4.5-1.4-4.5-4c0-1.2,0.6-2.3,1.6-3.4l30-30.2h-31v-7.5h39.5c2.3,0,4.5,1.4,4.5,4
		c0,1.2-0.6,2.3-1.6,3.4l-30,30.2h31.4v7.5H237.7z"/>
</g>
<g class="st2">
	<path class="st0" d="M125.8,366.1c-12.6,0-21.9-9.9-21.9-23c0-13.3,9.3-22.1,21.9-22.1h24.5v7.9h-24.5c-8.1,0-14,6-14,14.6
		c0,8.5,5.9,14.8,14,14.8h24.5v7.9H125.8z"/>
	<path class="st0" d="M177.3,366.1c-12.6,0-21.9-9.9-21.9-23c0-13.3,9.3-22.1,21.9-22.1h11c13,0,22.1,9,22.1,22.1
		c0,13.1-9.2,23-22.1,23H177.3z M188.3,358.2c8.3,0,14.2-6.3,14.2-14.8s-5.9-14.6-14.2-14.6h-11c-8.1,0-14,6-14,14.6
		c0,8.5,5.9,14.8,14,14.8H188.3z"/>
	<path class="st0" d="M217.2,366.1V321h7.9v45.1H217.2z"/>
	<path class="st0" d="M240.7,333.1v33h-7.5v-41c0-2.9,1.6-4.7,4-4.7c1.2,0,2.2,0.4,3.4,1.6l31.8,31.6v-33h7.5v41.3
		c0,3-1.6,4.7-3.9,4.7c-1.3,0-2.5-0.6-3.6-1.7L240.7,333.1z"/>
</g>
</svg>
