<?xml version="1.0" encoding="utf-8"?>
<!-- Generator: Adobe Illustrator 27.2.0, SVG Export Plug-In . SVG Version: 6.00 Build 0)  -->
<svg version="1.1" id="Layer_1" xmlns="http://www.w3.org/2000/svg" xmlns:xlink="http://www.w3.org/1999/xlink" x="0px" y="0px"
	 viewBox="0 0 302 159" style="enable-background:new 0 0 302 159;" xml:space="preserve">
<style type="text/css">
	.st0{fill:#FFFFFF;}
</style>
<g>
	<path class="st0" d="M133.3,88.9c-3.3-1.7-6.6-2.8-10-3.6c-3.6-0.9-7.3-1.3-11.1-1.3c-12.3,0-25.6,4.8-36.9,9.6
		c-8.2,3.4-16.2,7.2-24.6,10.1c-11.7,4.1-24,6.3-35.4-0.2c-0.8-0.5-1.6-0.9-2.4-1.4c0,0.1,7,7.8,11,10.6c13.3,9.4,29.7,8.6,44.5,3.5
		c9.1-3.2,17.8-7.5,26.6-11.5c7.8-3.6,15.6-7,23.9-9.2c4.7-1.2,9.3-2,14.1-2c2.1,0,4.3,0.2,6.4,0.5c0.8,0.1,1.7,0.3,2.5,0.4
		C141.9,94.4,136.2,90.3,133.3,88.9"/>
	<path class="st0" d="M51.2,99.1c-0.7-3.2-0.8-6.5-0.5-9.8c0.4-3.8,1.4-7.5,4-10.4c1.9-2.1,4-4,6.3-5.6c5.6-3.8,11.3-7.4,17-11.1
		c0.3-0.2,0.9-0.1,1.2,0.1c1.8,1.1,3.6,2.4,5.4,3.5c4.6,3,9.3,6,13.8,9.2c2,1.4,3.7,3.2,5,5.2c3.2-0.5,6.3-0.8,9.3-0.8
		c3.6,0,7,0.4,10.4,1.1c-1.1-4.2-2.9-8-5.4-11.6c-3.9-5.5-9.2-9.5-14.7-13c-4.3-2.8-8.8-5.5-13-8.4c-4.3-2.9-7.9-6.6-10-11.5
		c-0.3-0.6-0.5-1.2-0.7-2c2.8-0.5,5.1-1.7,6.8-3.9c1.6-2.2,2.5-5.4,1.8-7.4c-1.6,5.5-4.7,7.9-8.9,6.9c-3.7-0.9-6.2-4.6-5.6-8.2
		c0.4-2.3,1.6-4.1,3.6-5.3c2-1.2,4.2-1.2,6.4-0.6c-3.3-2-6.7-2.1-10-0.2c-3.6,2.1-5.3,5.5-4.8,9.7c0.7,5.4,4.1,8.2,9.4,8.9
		c-0.1,0.4-0.2,0.8-0.3,1.1c-1.3,3.4-3.4,6.3-6,8.8c-3,2.9-6.5,5.2-10,7.4c-5.5,3.4-11.1,6.6-16,11c-5.1,4.5-9,10-10.9,16.6
		c-2.4,7.9-2.7,15.9-1,23.9c0.9,0,1.8,0,2.8-0.1C41.4,102.2,46.4,100.8,51.2,99.1"/>
	<path class="st0" d="M119,100.5c-6.9,1.9-13.5,4.7-20,7.7c-7.6,3.4-15.1,6.9-22.7,10.2c-8.9,3.7-18,6.4-27.8,6.6
		c-0.2,0-0.5,0.1-0.7,0.2v0.3c13.3,9.3,27.8,12,43.3,6.6c15.2-5.3,24.9-16.2,29.6-31.5c-0.1-0.1-0.2-0.2-0.3-0.3
		C119.9,100.3,119.5,100.4,119,100.5"/>
	<path class="st0" d="M133.3,88.9c-3.3-1.7-6.6-2.8-10-3.6c-3.6-0.9-7.3-1.3-11.1-1.3c-12.3,0-25.6,4.8-36.9,9.6
		c-8.2,3.4-16.2,7.2-24.6,10.1c-11.7,4.1-24,6.3-35.4-0.2c-0.8-0.5-1.6-0.9-2.4-1.4c0,0.1,7,7.8,11,10.6c13.3,9.4,29.7,8.6,44.5,3.5
		c9.1-3.2,17.8-7.5,26.6-11.5c7.8-3.6,15.6-7,23.9-9.2c4.7-1.2,9.3-2,14.1-2c2.1,0,4.3,0.2,6.4,0.5c0.8,0.1,1.7,0.3,2.5,0.4
		C141.9,94.4,136.2,90.3,133.3,88.9"/>
	<path class="st0" d="M51.2,99.1c-0.7-3.2-0.8-6.5-0.5-9.8c0.4-3.8,1.4-7.5,4-10.4c1.9-2.1,4-4,6.3-5.6c5.6-3.8,11.3-7.4,17-11.1
		c0.3-0.2,0.9-0.1,1.2,0.1c1.8,1.1,3.6,2.4,5.4,3.5c4.6,3,9.3,6,13.8,9.2c2,1.4,3.7,3.2,5,5.2c3.2-0.5,6.3-0.8,9.3-0.8
		c3.6,0,7,0.4,10.4,1.1c-1.1-4.2-2.9-8-5.4-11.6c-3.9-5.5-9.2-9.5-14.7-13c-4.3-2.8-8.8-5.5-13-8.4c-4.3-2.9-7.9-6.6-10-11.5
		c-0.3-0.6-0.5-1.2-0.7-2c2.8-0.5,5.1-1.7,6.8-3.9c1.6-2.2,2.5-5.4,1.8-7.4c-1.6,5.5-4.7,7.9-8.9,6.9c-3.7-0.9-6.2-4.6-5.6-8.2
		c0.4-2.3,1.6-4.1,3.6-5.3c2-1.2,4.2-1.2,6.4-0.6c-3.3-2-6.7-2.1-10-0.2c-3.6,2.1-5.3,5.5-4.8,9.7c0.7,5.4,4.1,8.2,9.4,8.9
		c-0.1,0.4-0.2,0.8-0.3,1.1c-1.3,3.4-3.4,6.3-6,8.8c-3,2.9-6.5,5.2-10,7.4c-5.5,3.4-11.1,6.6-16,11c-5.1,4.5-9,10-10.9,16.6
		c-2.4,7.9-2.7,15.9-1,23.9c0.9,0,1.8,0,2.8-0.1C41.4,102.2,46.4,100.8,51.2,99.1"/>
	<path class="st0" d="M119,100.5c-6.9,1.9-13.5,4.7-20,7.7c-7.6,3.4-15.1,6.9-22.7,10.2c-8.9,3.7-18,6.4-27.8,6.6
		c-0.2,0-0.5,0.1-0.7,0.2v0.3c13.3,9.3,27.8,12,43.3,6.6c15.2-5.3,24.9-16.2,29.6-31.5c-0.1-0.1-0.2-0.2-0.3-0.3
		C119.9,100.3,119.5,100.4,119,100.5"/>
	<g>
		<path class="st0" d="M169.4,74c-9.9,0-17.3-7.8-17.3-18.1c0-10.5,7.3-17.4,17.3-17.4h19.3v6.2h-19.3c-6.4,0-11.1,4.7-11.1,11.5
			c0,6.7,4.6,11.6,11.1,11.6h19.3V74H169.4z"/>
		<path class="st0" d="M230.8,74l-5.3-9h-16.8l2.9-5h10.9l-7.9-13.3L198.4,74h-7.1l20.4-34c0.7-1.2,1.7-2,3-2c1.4,0,2.3,0.8,3,2
			l20.5,34H230.8z"/>
		<path class="st0" d="M242.4,74V38.4h6.2V74H242.4z"/>
		<path class="st0" d="M257.6,74c-1.9,0-3.5-1.1-3.5-3.2c0-0.9,0.4-1.8,1.3-2.6l23.6-23.8h-24.5v-5.9h31.1c1.8,0,3.5,1.1,3.5,3.2
			c0,0.9-0.4,1.8-1.3,2.6L264.2,68H289V74H257.6z"/>
	</g>
	<path d="M281,121.4H160.1c-4.4,0-8-3.6-8-8V91.6c0-4.4,3.6-8,8-8H281c4.4,0,8,3.6,8,8v21.9C289,117.8,285.4,121.4,281,121.4z"/>
	<g>
		<path class="st0" d="M186.6,109.1V94.6h12.9v2.5h-10.4v9.4h10.4v2.5H186.6z M191,102.8v-2.1h8v2.1H191z"/>
		<path class="st0" d="M216.7,109.1l-2.2-3.6h-6.8l1.2-2h4.4l-3.2-5.4l-6.6,11.1h-2.9l8.3-13.8c0.3-0.5,0.7-0.8,1.2-0.8
			c0.6,0,0.9,0.3,1.2,0.8l8.3,13.8H216.7z"/>
		<path class="st0" d="M234.7,109.1l-3.7-4h-5.4v-2.2h6c1.8,0,2.8-1,2.8-2.9s-1-2.8-2.8-2.8h-7.9v11.9h-2.5V94.6h10.4
			c3.3,0,5.2,2,5.2,5.3c0,2.4-1.1,4.1-3,4.8l4.4,4.4H234.7z"/>
		<path class="st0" d="M242,98.5v10.6h-2.4V96c0-0.9,0.5-1.5,1.3-1.5c0.4,0,0.7,0.1,1.1,0.5l10.2,10.1V94.5h2.4v13.2
			c0,1-0.5,1.5-1.3,1.5c-0.4,0-0.8-0.2-1.2-0.5L242,98.5z"/>
	</g>
	<g>
		<path class="st0" d="M160.1,140.8v-2.4h5.8c1.8,0,2.8-1.1,2.8-2.7c0-1.7-1.1-2.7-2.8-2.7h-7.6v11.9h-2.5v-14.4h10.2
			c3.3,0,5.3,2,5.3,5.2c0,3.1-1.9,5.3-5.3,5.3H160.1z"/>
		<path class="st0" d="M186.3,144.8l-3.7-4h-5.4v-2.2h6c1.8,0,2.8-1,2.8-2.9s-1-2.8-2.8-2.8h-7.9v11.9h-2.5v-14.4h10.4
			c3.3,0,5.2,2,5.2,5.3c0,2.4-1.1,4.1-3,4.8l4.4,4.4H186.3z"/>
		<path class="st0" d="M197.5,144.8c-4,0-7-3.2-7-7.4c0-4.3,3-7.1,7-7.1h3.5c4.2,0,7.1,2.9,7.1,7.1c0,4.2-3,7.4-7.1,7.4H197.5z
			 M201,142.3c2.7,0,4.5-2,4.5-4.7c0-2.7-1.9-4.7-4.5-4.7h-3.5c-2.6,0-4.5,1.9-4.5,4.7c0,2.7,1.9,4.7,4.5,4.7H201z"/>
		<path class="st0" d="M216.7,144.8c-4,0-7-3.2-7-7.4c0-4.3,3-7.1,7-7.1h7.8v2.5h-7.8c-2.6,0-4.5,1.9-4.5,4.7c0,2.7,1.9,4.7,4.5,4.7
			h6.2v-3.8h-6.5v-2.1h9.1v8.4H216.7z"/>
		<path class="st0" d="M241.2,144.8l-3.7-4h-5.4v-2.2h6c1.8,0,2.8-1,2.8-2.9s-1-2.8-2.8-2.8h-7.9v11.9h-2.5v-14.4h10.4
			c3.3,0,5.2,2,5.2,5.3c0,2.4-1.1,4.1-3,4.8l4.4,4.4H241.2z"/>
		<path class="st0" d="M261.1,144.8l-2.2-3.6h-6.8l1.2-2h4.4l-3.2-5.4l-6.6,11.1h-2.9l8.3-13.8c0.3-0.5,0.7-0.8,1.2-0.8
			c0.6,0,0.9,0.3,1.2,0.8l8.3,13.8H261.1z"/>
		<path class="st0" d="M283.7,144.8l-2.8-10.2l-4.1,9.4c-0.3,0.6-0.7,1-1.3,1c-0.6,0-1-0.3-1.3-1l-4.1-9.4l-2.8,10.2h-2.5l3.7-13.6
			c0.2-0.7,0.6-1,1.3-1c0.5,0,1,0.3,1.3,0.9l4.5,10.2l4.5-10.2c0.2-0.6,0.7-0.9,1.2-0.9c0.6,0,1,0.3,1.2,1l3.7,13.6H283.7z"/>
	</g>
</g>
</svg>
