<?xml version="1.0" encoding="utf-8"?>
<!-- Generator: Adobe Illustrator 28.1.0, SVG Export Plug-In . SVG Version: 6.00 Build 0)  -->
<svg version="1.1" id="Layer_1" xmlns="http://www.w3.org/2000/svg" xmlns:xlink="http://www.w3.org/1999/xlink" x="0px" y="0px"
	 viewBox="0 0 102 124" style="enable-background:new 0 0 102 124;" xml:space="preserve">
<style type="text/css">
	.st0{fill:url(#SVGID_1_);}
</style>
<g>
	<linearGradient id="SVGID_1_" gradientUnits="userSpaceOnUse" x1="76.6648" y1="43.8587" x2="26.5609" y2="74.7607">
		<stop  offset="0" style="stop-color:#64BC46"/>
		<stop  offset="0.9538" style="stop-color:#00A44D"/>
	</linearGradient>
	<path class="st0" d="M86.6,53.7c-2.1-1.1-4.2-1.8-6.4-2.3c-2.3-0.5-4.7-0.8-7-0.8c-7.8,0-16.3,3.1-23.5,6.1
		c-5.2,2.2-10.3,4.6-15.7,6.4c-7.5,2.6-15.3,4-22.5-0.1c-0.5-0.3-1-0.6-1.5-0.9c0,0,4.4,5,7,6.7c8.5,6,18.9,5.5,28.3,2.2
		c5.8-2,11.3-4.7,16.9-7.3c4.9-2.3,9.9-4.5,15.2-5.8c3-0.8,5.9-1.3,9-1.3c1.4,0,2.7,0.1,4.1,0.3c0.5,0.1,1.1,0.2,1.6,0.2
		C92.1,57.2,88.4,54.6,86.6,53.7"/>
	<path d="M34.3,60.2c-0.4-2-0.5-4.1-0.3-6.3c0.2-2.4,0.9-4.8,2.5-6.6c1.2-1.3,2.5-2.6,4-3.6c3.5-2.4,7.2-4.7,10.8-7.1
		c0.2-0.1,0.6-0.1,0.8,0.1c1.1,0.7,2.3,1.5,3.4,2.2c2.9,1.9,5.9,3.8,8.8,5.8c1.3,0.9,2.3,2,3.2,3.3c2-0.3,4-0.5,5.9-0.5
		c2.3,0,4.5,0.2,6.6,0.7c-0.7-2.6-1.8-5.1-3.4-7.4c-2.5-3.5-5.8-6-9.4-8.3c-2.8-1.8-5.6-3.5-8.3-5.3c-2.7-1.9-5-4.2-6.3-7.3
		c-0.2-0.4-0.3-0.8-0.5-1.2c1.8-0.3,3.3-1.1,4.4-2.5c1-1.4,1.6-3.5,1.2-4.7c-1,3.5-3,5.1-5.7,4.4c-2.4-0.6-4-2.9-3.6-5.2
		c0.3-1.5,1-2.6,2.3-3.4c1.3-0.8,2.7-0.8,4.1-0.4c-2.1-1.3-4.2-1.3-6.3-0.1c-2.3,1.4-3.4,3.5-3.1,6.2c0.4,3.4,2.6,5.2,6,5.7
		c-0.1,0.3-0.1,0.5-0.2,0.7c-0.8,2.2-2.2,4-3.8,5.6c-1.9,1.9-4.1,3.3-6.4,4.7c-3.5,2.2-7.1,4.2-10.2,7c-3.3,2.9-5.7,6.3-7,10.6
		C22.2,52.4,22,57.5,23,62.6c0.6,0,1.2,0,1.8-0.1C28.1,62.1,31.3,61.3,34.3,60.2"/>
	<path d="M77.5,61.1c-4.4,1.2-8.6,3-12.7,4.9c-4.8,2.2-9.6,4.4-14.4,6.5c-5.6,2.4-11.5,4.1-17.7,4.2c-0.2,0-0.3,0.1-0.5,0.1V77
		c8.5,5.9,17.7,7.6,27.6,4.2c9.7-3.4,15.8-10.3,18.8-20.1c-0.1-0.1-0.1-0.1-0.2-0.2C78.1,60.9,77.8,61,77.5,61.1"/>
	<g>
		<path d="M10.6,98.5c1-1.9,2.5-3.5,4.4-4.5c1.9-1.1,4.1-1.6,6.6-1.6c3.1,0,5.8,0.8,7.9,2.5c2.1,1.7,3.5,4,4.1,6.8h-7.5
			c-0.5-1-1.1-1.7-1.9-2.2c-0.8-0.5-1.7-0.7-2.8-0.7c-1.6,0-2.9,0.6-3.9,1.7c-1,1.2-1.4,2.7-1.4,4.6c0,2,0.5,3.5,1.4,4.7
			c1,1.2,2.3,1.7,3.9,1.7c1,0,2-0.2,2.8-0.7c0.8-0.5,1.4-1.2,1.9-2.2h7.5c-0.6,2.9-2,5.2-4.1,6.8c-2.1,1.7-4.8,2.5-7.9,2.5
			c-2.5,0-4.7-0.5-6.6-1.6c-1.9-1.1-3.4-2.6-4.4-4.5S9,107.6,9,105.1C9,102.6,9.5,100.4,10.6,98.5z"/>
		<path d="M52.9,113.6h-8.9l-1.4,4.1h-7.4l9.2-25.2h8.1l9.1,25.2h-7.4L52.9,113.6z M51.1,108.3l-2.7-8.1l-2.7,8.1H51.1z"/>
		<path d="M70.9,92.6v25.2h-7V92.6H70.9z"/>
		<path d="M82.5,112.1H93v5.7H74.7v-5.3L85,98.2H74.7v-5.6H93v5.3L82.5,112.1z"/>
	</g>
</g>
</svg>
