<?xml version="1.0" encoding="utf-8"?>
<!-- Generator: Adobe Illustrator 27.2.0, SVG Export Plug-In . SVG Version: 6.00 Build 0)  -->
<svg version="1.1" id="Layer_1" xmlns="http://www.w3.org/2000/svg" xmlns:xlink="http://www.w3.org/1999/xlink" x="0px" y="0px"
	 viewBox="0 0 254 243" style="enable-background:new 0 0 254 243;" xml:space="preserve">
<style type="text/css">
	.st0{fill:url(#SVGID_1_);}
</style>
<g>
	<path d="M79.2,166.6c-1.2-5.9-1.5-11.8-0.9-17.9c0.7-7,2.5-13.7,7.2-18.9c3.4-3.8,7.2-7.4,11.4-10.3c10.2-7,20.6-13.6,31-20.3
		c0.5-0.3,1.6-0.2,2.2,0.1c3.3,2.1,6.5,4.3,9.8,6.4c8.4,5.5,16.9,10.9,25.1,16.8c3.7,2.6,6.7,5.8,9,9.5c5.8-0.9,11.5-1.4,17-1.4
		c6.5,0,12.9,0.7,19,2c-2-7.6-5.2-14.7-9.9-21.2c-7.2-10-16.7-17.3-26.9-23.8c-7.9-5.1-16-10-23.7-15.3c-7.8-5.4-14.3-12.1-18.2-21
		c-0.5-1.1-0.9-2.3-1.3-3.6c5.2-1,9.4-3,12.5-7.1c3-3.9,4.6-9.9,3.4-13.4c-2.9,10.1-8.6,14.5-16.3,12.7c-6.8-1.6-11.4-8.4-10.3-15
		c0.7-4.3,2.9-7.6,6.5-9.7c3.7-2.2,7.7-2.3,11.7-1c-6-3.6-12.2-3.8-18.2-0.3c-6.7,3.9-9.8,10.1-8.8,17.7c1.2,9.8,7.5,14.9,17.1,16.3
		c-0.2,0.8-0.4,1.4-0.6,2c-2.4,6.2-6.2,11.4-11,16c-5.5,5.3-11.9,9.5-18.3,13.6c-10,6.3-20.3,12.1-29.2,20
		c-9.4,8.3-16.4,18.2-20,30.4c-4.3,14.5-4.9,29.1-1.8,43.6c1.7,0,3.3-0.1,5.1-0.2C61.3,172.2,70.5,169.7,79.2,166.6"/>
	<path d="M203,169.1c-12.6,3.5-24.6,8.6-36.5,14c-13.8,6.2-27.5,12.7-41.4,18.5c-16.2,6.8-32.9,11.8-50.7,12.1
		c-0.5,0-0.9,0.2-1.4,0.3v0.6c24.3,17.1,50.8,21.8,79.1,12c27.8-9.7,45.4-29.6,54-57.5c-0.2-0.2-0.3-0.4-0.5-0.6
		C204.8,168.7,203.9,168.9,203,169.1"/>
	
		<linearGradient id="SVGID_1_" gradientUnits="userSpaceOnUse" x1="234.3774" y1="679.1724" x2="-0.125" y2="658.5468" gradientTransform="matrix(1 0 0 -1 0 842.1102)">
		<stop  offset="0" style="stop-color:#D7E02D"/>
		<stop  offset="1" style="stop-color:#096B37"/>
	</linearGradient>
	<path class="st0" d="M229.2,148c-6-3-12.1-5.2-18.3-6.6c-6.6-1.6-13.4-2.3-20.2-2.3c-22.5,0-46.8,8.8-67.4,17.5
		c-14.9,6.3-29.7,13.2-44.9,18.4c-21.4,7.4-43.9,11.5-64.7-0.3c-1.5-0.8-2.9-1.7-4.4-2.5c-0.1,0.1,12.7,14.2,20,19.4
		c24.3,17.1,54.3,15.8,81.3,6.4c16.7-5.8,32.5-13.6,48.5-21c14.2-6.5,28.4-12.8,43.6-16.8c8.5-2.2,17.1-3.6,25.7-3.6
		c3.9,0,7.8,0.3,11.8,0.9c1.5,0.2,3,0.5,4.5,0.7C244.9,158,234.4,150.6,229.2,148"/>
</g>
</svg>
