<?xml version="1.0" encoding="utf-8"?>
<!-- Generator: Adobe Illustrator 28.1.0, SVG Export Plug-In . SVG Version: 6.00 Build 0)  -->
<svg version="1.1" id="Layer_1" xmlns="http://www.w3.org/2000/svg" xmlns:xlink="http://www.w3.org/1999/xlink" x="0px" y="0px"
	 viewBox="0 0 161 59" style="enable-background:new 0 0 161 59;" xml:space="preserve">
<style type="text/css">
	.st0{fill:url(#SVGID_1_);}
	.st1{fill:#FFFFFF;}
</style>
<g>
	<linearGradient id="SVGID_1_" gradientUnits="userSpaceOnUse" x1="48.159" y1="26.8859" x2="14.6754" y2="48.4843">
		<stop  offset="0" style="stop-color:#64BC46"/>
		<stop  offset="1" style="stop-color:#00A44D"/>
	</linearGradient>
	<path class="st0" d="M51.6,35c-1.3-0.6-2.6-1.1-3.9-1.4c-1.4-0.3-2.8-0.5-4.3-0.5c-4.8,0-9.9,1.9-14.3,3.7
		c-3.2,1.3-6.3,2.8-9.5,3.9c-4.5,1.6-9.3,2.4-13.7-0.1c-0.3-0.2-0.6-0.4-0.9-0.5c0,0,2.7,3,4.2,4.1c5.2,3.6,11.5,3.3,17.2,1.4
		c3.5-1.2,6.9-2.9,10.3-4.4c3-1.4,6-2.7,9.2-3.6c1.8-0.5,3.6-0.8,5.5-0.8c0.8,0,1.7,0.1,2.5,0.2c0.3,0,0.6,0.1,1,0.1
		C54.9,37.1,52.7,35.6,51.6,35"/>
	<path class="st1" d="M19.8,38.9c-0.3-1.2-0.3-2.5-0.2-3.8c0.1-1.5,0.5-2.9,1.5-4c0.7-0.8,1.5-1.6,2.4-2.2c2.2-1.5,4.4-2.9,6.6-4.3
		c0.1-0.1,0.3,0,0.5,0c0.7,0.4,1.4,0.9,2.1,1.4c1.8,1.2,3.6,2.3,5.3,3.5c0.8,0.5,1.4,1.2,1.9,2c1.2-0.2,2.4-0.3,3.6-0.3
		c1.4,0,2.7,0.1,4,0.4c-0.4-1.6-1.1-3.1-2.1-4.5c-1.5-2.1-3.5-3.7-5.7-5c-1.7-1.1-3.4-2.1-5-3.3c-1.7-1.1-3-2.6-3.9-4.4
		c-0.1-0.2-0.2-0.5-0.3-0.8c1.1-0.2,2-0.6,2.6-1.5c0.6-0.8,1-2.1,0.7-2.8c-0.6,2.1-1.8,3.1-3.5,2.7c-1.4-0.3-2.4-1.8-2.2-3.2
		c0.2-0.9,0.6-1.6,1.4-2.1c0.8-0.5,1.6-0.5,2.5-0.2c-1.3-0.8-2.6-0.8-3.9-0.1c-1.4,0.8-2.1,2.1-1.9,3.7c0.3,2.1,1.6,3.2,3.6,3.5
		c0,0.2-0.1,0.3-0.1,0.4c-0.5,1.3-1.3,2.4-2.3,3.4c-1.2,1.1-2.5,2-3.9,2.9c-2.1,1.3-4.3,2.6-6.2,4.2c-2,1.8-3.5,3.9-4.2,6.4
		c-0.9,3.1-1,6.2-0.4,9.2c0.4,0,0.7,0,1.1-0.1C16,40.1,18,39.6,19.8,38.9"/>
	<path class="st1" d="M46,39.5c-2.7,0.7-5.2,1.8-7.7,3c-2.9,1.3-5.8,2.7-8.8,3.9c-3.4,1.4-7,2.5-10.7,2.6c-0.1,0-0.2,0-0.3,0.1v0.1
		c5.1,3.6,10.8,4.6,16.8,2.5c5.9-2.1,9.6-6.3,11.4-12.2c0,0-0.1-0.1-0.1-0.1C46.4,39.4,46.2,39.4,46,39.5"/>
	<g>
		<path class="st1" d="M60.8,30.5c1.2-2.2,2.9-4,5.1-5.2c2.2-1.2,4.7-1.9,7.6-1.9c3.6,0,6.7,1,9.2,2.9c2.5,1.9,4.1,4.6,4.8,7.9h-8.7
			c-0.5-1.1-1.2-1.9-2.2-2.5c-0.9-0.6-2-0.9-3.2-0.9c-1.9,0-3.4,0.7-4.5,2c-1.1,1.3-1.7,3.1-1.7,5.3c0,2.3,0.6,4,1.7,5.4
			c1.1,1.3,2.6,2,4.5,2c1.2,0,2.3-0.3,3.2-0.9c0.9-0.6,1.6-1.4,2.2-2.5h8.7c-0.7,3.3-2.3,6-4.8,7.9C80.2,52,77.2,53,73.5,53
			c-2.9,0-5.4-0.6-7.6-1.9c-2.2-1.2-3.9-3-5.1-5.2c-1.2-2.2-1.8-4.8-1.8-7.7C59.1,35.3,59.7,32.8,60.8,30.5z"/>
		<path class="st1" d="M109.7,48H99.4l-1.6,4.7h-8.5l10.6-29.1h9.3l10.6,29.1h-8.5L109.7,48z M107.7,41.8l-3.1-9.4l-3.1,9.4H107.7z"
			/>
		<path class="st1" d="M130.5,23.7v29.1h-8.1V23.7H130.5z"/>
		<path class="st1" d="M143.9,46.2H156v6.6h-21.1v-6.1l12-16.4h-12v-6.5H156v6.1L143.9,46.2z"/>
	</g>
</g>
</svg>
