<?xml version="1.0" encoding="utf-8"?>
<!-- Generator: Adobe Illustrator 27.0.0, SVG Export Plug-In . SVG Version: 6.00 Build 0)  -->
<svg version="1.1" id="Layer_1" xmlns="http://www.w3.org/2000/svg" xmlns:xlink="http://www.w3.org/1999/xlink" x="0px" y="0px"
	 viewBox="0 0 200 200" style="enable-background:new 0 0 200 200;" xml:space="preserve">
<style type="text/css">
	.st0{fill:#828282;}
</style>
<g>
	<path class="st0" d="M42.7,130.9V52.5L78,70.3v79.2v0.1c-0.1,0-0.1,0-0.1-0.1l-34.2-17c-0.3-0.2-0.5-0.4-0.7-0.8
		C42.8,131.4,42.7,131.2,42.7,130.9z M82.3,76.5L114,128l-31.7-15.8V76.5z M156.4,69.8l-36.5,59.5l-23.5-38L120.7,52L156.4,69.8z
		 M122.9,132.4l34.4-55.9v72.9c0,0.1,0,0.2,0,0.3l-0.1-0.1L122.9,132.4z"/>
</g>
</svg>
