<svg xmlns="http://www.w3.org/2000/svg" width="34.01" height="26.986" viewBox="0 0 34.01 26.986">
  <path id="Icon_awesome-medium-m" data-name="Icon awesome-medium-m" d="M5.027,10.005A1.327,1.327,0,0,0,4.6,8.895L1.427,5.07V4.5h9.858l7.622,16.713L25.608,4.5h9.4v.57l-2.714,2.6a.792.792,0,0,0-.3.759V27.555a.792.792,0,0,0,.3.759l2.651,2.6v.57H21.607v-.57l2.749-2.665c.267-.267.267-.352.267-.759V12.038l-7.643,19.4H15.947l-8.887-19.4v13a1.771,1.771,0,0,0,.492,1.491l3.572,4.331v.57H1v-.562L4.57,26.529a1.713,1.713,0,0,0,.457-1.491Z" transform="translate(-0.998 -4.5)" fill="#129647"/>
</svg>
