<svg xmlns="http://www.w3.org/2000/svg" width="25" height="28.845" viewBox="0 0 25 28.845">
  <path id="logo-tiktok" d="M69.846,22.169a6.568,6.568,0,0,1-.568-.33A7.984,7.984,0,0,1,67.819,20.6a6.878,6.878,0,0,1-1.643-3.391h.006A4.176,4.176,0,0,1,66.116,16H61.163V35.156c0,.257,0,.511-.011.763,0,.031,0,.06,0,.094a.207.207,0,0,1,0,.043v.011A4.206,4.206,0,0,1,59.028,39.4a4.134,4.134,0,0,1-2.05.541,4.206,4.206,0,0,1,0-8.413,4.14,4.14,0,0,1,1.287.2l.006-5.044a9.2,9.2,0,0,0-7.091,2.074,9.722,9.722,0,0,0-2.121,2.616,9.064,9.064,0,0,0-1.094,4.161,9.82,9.82,0,0,0,.532,3.289v.012A9.681,9.681,0,0,0,49.842,41.3a10.067,10.067,0,0,0,2.146,2.024v-.012l.012.012a9.269,9.269,0,0,0,5.057,1.523,8.953,8.953,0,0,0,3.753-.83,9.419,9.419,0,0,0,3.048-2.291,9.522,9.522,0,0,0,1.661-2.76,10.339,10.339,0,0,0,.6-3.157V25.644c.06.036.86.565.86.565a11.457,11.457,0,0,0,2.952,1.22,17,17,0,0,0,3.03.415V22.927A6.424,6.424,0,0,1,69.846,22.169Z" transform="translate(-47.959 -16)" fill="#139648"/>
</svg>
