<svg xmlns="http://www.w3.org/2000/svg" width="22" height="28.43" viewBox="0 0 22 28.43">
  <path id="pinterest-4" d="M0,10.2A8.95,8.95,0,0,1,.753,6.651a11.283,11.283,0,0,1,2.16-3.269A10.322,10.322,0,0,1,6.609.938,13.264,13.264,0,0,1,11.682,0,10.273,10.273,0,0,1,19.1,2.786,8.81,8.81,0,0,1,22,9.351a12.7,12.7,0,0,1-2.459,8.03,7.687,7.687,0,0,1-6.353,3.169,5.038,5.038,0,0,1-2.4-.6A3.656,3.656,0,0,1,9.209,18.5L8.072,22.995a8.7,8.7,0,0,1-.37,1.094c-.151.37-.318.725-.5,1.066s-.361.662-.54.966-.361.588-.54.853-.335.489-.469.668-.256.335-.37.469l-.171.227a.209.209,0,0,1-.227.085.205.205,0,0,1-.171-.171c0-.02-.014-.151-.043-.4s-.057-.506-.085-.782-.057-.631-.085-1.066-.037-.858-.028-1.265.037-.858.085-1.35a11.278,11.278,0,0,1,.213-1.364q.311-1.334,2.1-8.9a4.782,4.782,0,0,1-.37-1.094A5.087,5.087,0,0,1,6.367,11l-.028-.426a4.829,4.829,0,0,1,.924-3.027A2.739,2.739,0,0,1,9.494,6.339a2.016,2.016,0,0,1,1.634.7,2.623,2.623,0,0,1,.583,1.748,6.686,6.686,0,0,1-.242,1.606q-.243.951-.64,2.189t-.568,2a2.454,2.454,0,0,0,.5,2.217,2.579,2.579,0,0,0,2.089.938q2.247,0,3.709-2.544a12.157,12.157,0,0,0,1.464-6.154A6.019,6.019,0,0,0,16.23,4.534a6.861,6.861,0,0,0-5-1.748,7.73,7.73,0,0,0-5.813,2.3A7.649,7.649,0,0,0,3.183,10.6a4.881,4.881,0,0,0,1.08,3.212.925.925,0,0,1,.227.91,5.88,5.88,0,0,0-.171.654,5.88,5.88,0,0,1-.171.654.51.51,0,0,1-.284.412.644.644,0,0,1-.512-.014A4.755,4.755,0,0,1,.838,14.084,8.5,8.5,0,0,1,0,10.2Z" fill="#139648"/>
</svg>
