<svg xmlns="http://www.w3.org/2000/svg" width="32" height="32" viewBox="0 0 32 32">
  <g id="Group_46039" data-name="Group 46039" transform="translate(-563.006 -771.956)">
    <path id="Path_48422" data-name="Path 48422" d="M595,803.956h.008V792.219c0-5.742-1.236-10.164-7.948-10.164a6.967,6.967,0,0,0-6.276,3.449h-.093v-2.913h-6.364v21.364h6.626V793.376c0-2.785.528-5.479,3.978-5.479,3.4,0,3.449,3.179,3.449,5.658v10.4Z" fill="#139648"/>
    <path id="Path_48423" data-name="Path 48423" d="M563.534,782.592h6.635v21.364h-6.635Z" fill="#139648"/>
    <path id="Path_48424" data-name="Path 48424" d="M566.849,771.956a3.861,3.861,0,1,0,3.842,3.843A3.844,3.844,0,0,0,566.849,771.956Z" fill="#139648"/>
  </g>
</svg>
