<?xml version="1.0" encoding="utf-8"?>
<!-- Generator: Adobe Illustrator 27.0.0, SVG Export Plug-In . SVG Version: 6.00 Build 0)  -->
<svg version="1.1" id="Layer_1" xmlns="http://www.w3.org/2000/svg" xmlns:xlink="http://www.w3.org/1999/xlink" x="0px" y="0px"
	 viewBox="0 0 200 200" style="enable-background:new 0 0 200 200;" xml:space="preserve">
<style type="text/css">
	.st0{fill:#828282;}
</style>
<g>
	<path class="st0" d="M156.6,97.6c0,2.2-0.6,4.3-1.6,6.3c-1.1,2-2.6,3.6-4.6,4.8c0.2,0.6,0.3,1.2,0.3,1.8c0,0.6,0.1,1.3,0.1,2
		c0,4.7-1.4,9.2-4.1,13.3c-2.6,4.1-6.2,7.8-10.8,10.8c-4.6,3.1-10,5.5-16.2,7.3s-12.8,2.7-19.8,2.7s-13.6-0.9-19.8-2.7
		c-6.2-1.8-11.5-4.2-16.1-7.3s-8.2-6.7-10.9-10.8c-2.7-4.1-4.1-8.6-4.1-13.3c0-0.7,0-1.3,0.1-2c0.1-0.6,0.2-1.3,0.3-2
		c-1.9-1.2-3.3-2.7-4.4-4.7c-1.1-1.9-1.6-4-1.6-6.2c0-3.6,1.3-6.7,3.8-9.3c2.5-2.5,5.6-3.8,9.3-3.8c1.5,0,3,0.3,4.5,0.8
		c1.5,0.6,2.8,1.3,4,2.3c4.3-2.8,9.3-5,14.9-6.6s11.6-2.5,17.9-2.7l9.1-31.3l22.9,4.3h0.1c0.6-1.2,1.5-2.2,2.7-2.9
		c1.2-0.8,2.5-1.2,4.1-1.3c2.3-0.2,4.3,0.5,6,2.1s2.6,3.4,2.7,5.6c0.1,2.3-0.6,4.3-2.2,6c-1.5,1.7-3.4,2.6-5.7,2.8
		c-2.2,0.1-4.1-0.6-5.8-2.2c-1.7-1.5-2.6-3.4-2.8-5.7c0-0.1,0-0.2,0-0.3s0-0.2,0-0.3l-19-3.5l-7.7,26.6c6.3,0.2,12.3,1.1,17.9,2.7
		s10.6,3.9,14.9,6.7c1.2-1.1,2.5-1.9,3.9-2.5c1.4-0.5,3-0.8,4.6-0.8c3.6,0,6.7,1.3,9.3,3.8C155.4,90.9,156.6,94,156.6,97.6z
		 M78.2,112.1c1.6,1.6,3.4,2.3,5.6,2.3s4.1-0.8,5.6-2.3c1.6-1.6,2.3-3.4,2.3-5.6s-0.8-4.1-2.3-5.6c-1.6-1.6-3.4-2.3-5.6-2.3
		s-4.1,0.8-5.6,2.3c-1.6,1.6-2.3,3.4-2.3,5.6C75.9,108.7,76.7,110.5,78.2,112.1z M118.9,128c0.4-0.3,0.6-0.8,0.6-1.4
		s-0.2-1.1-0.6-1.4c-0.4-0.4-0.9-0.6-1.5-0.6s-1,0.2-1.5,0.6c-5.2,3.2-10.5,4.8-16.1,4.8c-5.4,0-9.3-0.8-11.7-2.3
		c-2.4-1.6-3.6-2.3-3.7-2.3c-0.3-0.4-0.8-0.7-1.3-0.7s-1.1,0.1-1.6,0.4c-0.4,0.3-0.7,0.8-0.7,1.4s0.1,1.1,0.6,1.5
		c0.1,0.1,1.5,1.1,4.4,3.2c2.8,2,7.5,3,14,3s11.3-1,14.3-3C117.2,129.3,118.8,128.2,118.9,128z M123,112.1c1.6-1.6,2.3-3.4,2.3-5.6
		s-0.8-4.1-2.3-5.6c-1.6-1.6-3.4-2.3-5.6-2.3c-2.3,0-4.2,0.8-5.8,2.3c-1.6,1.6-2.3,3.4-2.3,5.6s0.8,4.1,2.3,5.6
		c1.6,1.6,3.5,2.3,5.8,2.3C119.5,114.5,121.4,113.7,123,112.1z"/>
</g>
</svg>
