<svg id="Layer_1" enable-background="new 0 0 66 66" height="512" viewBox="0 0 66 66" width="512" xmlns="http://www.w3.org/2000/svg"><g><g><g><g><path d="m35.8 44.3c-.4 0-.7-.2-.9-.6-.4-1-1.1-1.5-1.8-1.5-.6 0-1.3.6-1.8 1.5-.2.4-.7.6-1.1.5-1.5-.3-3-.9-4.2-1.7-.4-.3-.6-.8-.4-1.2.4-1 .3-1.9-.2-2.3s-1.4-.5-2.3-.2c-.4.2-.9 0-1.2-.4-.8-1.3-1.4-2.7-1.7-4.4-.1-.5.1-.9.6-1.1 1-.4 1.5-1.1 1.5-1.8s-.6-1.4-1.5-1.8c-.4-.2-.7-.7-.6-1.1.4-1.8 1.1-3.3 1.7-4.3.2-.4.8-.6 1.2-.4 1 .4 1.9.3 2.3-.2.5-.5.5-1.4.2-2.3-.2-.4 0-.9.4-1.2 1.2-.8 2.6-1.4 4.2-1.7.5-.1.9.1 1.1.6.4 1 1.1 1.5 1.8 1.5s1.4-.6 1.8-1.5c.2-.4.7-.7 1.1-.6 1.5.3 3 .9 4.2 1.7.4.3.6.8.4 1.2-.4 1-.3 1.9.2 2.3.5.5 1.4.5 2.3.2.4-.2.9 0 1.2.4.8 1.3 1.4 2.7 1.7 4.4.1.5-.1.9-.6 1.1-1 .4-1.5 1.1-1.5 1.8s.6 1.4 1.5 1.8c.4.2.7.7.6 1.1-.4 1.8-1.1 3.3-1.7 4.3-.2.4-.8.6-1.2.4-1-.4-1.9-.3-2.3.2-.5.5-.5 1.4-.2 2.3.2.4 0 .9-.4 1.2-1.2.8-2.6 1.4-4.2 1.7-.1.1-.1.1-.2.1zm-2.7-4.1c1.3 0 2.4.7 3.2 1.9.8-.2 1.5-.5 2.2-.9-.3-1.4 0-2.8.9-3.7s2.2-1.2 3.6-.9c.3-.6.7-1.4.9-2.3-1.2-.8-1.9-2-1.9-3.2 0-1.3.7-2.4 2-3.2-.2-.9-.5-1.6-.9-2.3-1.4.3-2.8 0-3.7-.9s-1.2-2.2-.9-3.6c-.7-.4-1.5-.7-2.2-.9-.8 1.2-2 1.9-3.2 1.9-1.3 0-2.4-.7-3.2-1.9-.8.2-1.5.5-2.2.9.3 1.4 0 2.8-.9 3.7s-2.2 1.2-3.6.9c-.3.6-.7 1.4-.9 2.3 1.2.8 1.9 2 1.9 3.2 0 1.3-.7 2.4-2 3.2.2.9.5 1.6.9 2.3 1.4-.3 2.8 0 3.7.9s1.2 2.2.9 3.6c.7.4 1.5.7 2.2.9.8-1.2 2-1.9 3.2-1.9z"/></g><g><path d="m33 38.5c-4 0-7.3-3.3-7.3-7.3s3.3-7.3 7.3-7.3 7.3 3.3 7.3 7.3-3.3 7.3-7.3 7.3zm0-12.6c-2.9 0-5.3 2.4-5.3 5.3s2.4 5.3 5.3 5.3 5.3-2.4 5.3-5.3-2.4-5.3-5.3-5.3z"/></g></g><g><path d="m59.5 46.1c-.6 0-1-.4-1-1v-9.9h-13.5c-.6 0-1-.4-1-1s.4-1 1-1h14.5c.6 0 1 .4 1 1v10.9c0 .6-.4 1-1 1z"/></g><g><path d="m6.5 46.1c-.6 0-1-.4-1-1v-10.9c0-.6.4-1 1-1h14.5c.6 0 1 .4 1 1s-.4 1-1 1h-13.5v9.9c0 .6-.4 1-1 1z"/></g><g><path d="m59.5 51.9c-2.2 0-3.9-1.8-3.9-3.9s1.8-3.9 3.9-3.9 3.9 1.8 3.9 3.9-1.7 3.9-3.9 3.9zm0-5.8c-1 0-1.9.9-1.9 1.9s.9 1.9 1.9 1.9 1.9-.9 1.9-1.9-.9-1.9-1.9-1.9z"/></g><g><path d="m6.5 51.9c-2.2 0-3.9-1.8-3.9-3.9s1.7-3.9 3.9-3.9 3.9 1.8 3.9 3.9-1.7 3.9-3.9 3.9zm0-5.8c-1 0-1.9.9-1.9 1.9s.9 1.9 1.9 1.9 1.9-.9 1.9-1.9-.9-1.9-1.9-1.9z"/></g><g><path d="m46.9 65c-2.2 0-3.9-1.8-3.9-3.9s1.8-3.9 3.9-3.9 3.9 1.7 3.9 3.9-1.7 3.9-3.9 3.9zm0-5.8c-1 0-1.9.9-1.9 1.9s.9 1.9 1.9 1.9 1.9-.9 1.9-1.9-.9-1.9-1.9-1.9z"/></g><g><path d="m29.6 65c-2.2 0-3.9-1.8-3.9-3.9s1.7-3.9 3.9-3.9 3.9 1.7 3.9 3.9-1.7 3.9-3.9 3.9zm0-5.8c-1 0-1.9.9-1.9 1.9s.9 1.9 1.9 1.9 1.9-.9 1.9-1.9-.9-1.9-1.9-1.9z"/></g><g><path d="m29.6 54.4c-2.2 0-3.9-1.8-3.9-3.9s1.7-3.9 3.9-3.9 3.9 1.8 3.9 3.9-1.7 3.9-3.9 3.9zm0-5.8c-1 0-1.9.9-1.9 1.9s.9 1.9 1.9 1.9 1.9-.9 1.9-1.9-.9-1.9-1.9-1.9z"/></g><g><path d="m46.9 59.2c-.6 0-1-.4-1-1v-10.2c0-.6.4-1 1-1h9.7c.6 0 1 .4 1 1s-.4 1-1 1h-8.7v9.2c0 .6-.4 1-1 1z"/></g><g><path d="m18.8 57h-12.3c-.6 0-1-.4-1-1v-5.1c0-.6.4-1 1-1s1 .4 1 1v4.1h10.3v-4.5c0-.6.4-1 1-1h7.9c.6 0 1 .4 1 1s-.4 1-1 1h-6.9v4.5c0 .6-.4 1-1 1z"/></g><g><path d="m29.6 59.2c-.6 0-1-.4-1-1v-4.8c0-.6.4-1 1-1s1 .4 1 1v4.8c0 .6-.4 1-1 1z"/></g><g><path d="m44 62.1h-11.5c-.6 0-1-.4-1-1s.4-1 1-1h11.5c.6 0 1 .4 1 1s-.4 1-1 1z"/></g></g><g><g><path d="m45.1 19.5c-.2 0-.5-.1-.6-.2-.3-.3-.4-.7-.3-1.1l1-2.4c-2-.2-3.6-1.8-3.6-3.9v-7c0-2.2 1.8-3.9 4-3.9h14.5c1.1 0 2.1.5 2.8 1.3.7.7 1 1.7.9 2.7v6.8c0 2.2-1.7 3.9-3.9 3.9h-8.4l-5.9 3.6c-.1.2-.3.2-.5.2zm.5-16.5c-1.1 0-2 .8-2 1.9v6.9c0 1 .9 1.9 1.9 1.9h1.2c.3 0 .6.2.8.4.2.3.2.6.1.9l-.4 1 3.4-2.1c.2-.1.3-.2.5-.2h8.7c1 0 1.9-.9 1.9-1.9v-6.9-.1c.1-.6-.2-1-.4-1.2-.2-.4-.7-.6-1.2-.6z"/></g><g><g><path d="m58.3 7.5h-10.9c-.6 0-1-.4-1-1s.4-1 1-1h10.9c.6 0 1 .4 1 1s-.4 1-1 1z"/></g><g><path d="m58.3 11.3h-10.9c-.6 0-1-.4-1-1s.4-1 1-1h10.9c.6 0 1 .4 1 1s-.4 1-1 1z"/></g></g></g><g><g><path d="m20.9 19.5c-.2 0-.4 0-.5-.2l-5.9-3.6h-8.6c-2.2 0-3.9-1.7-3.9-3.9v-6.9c0-2.2 1.7-3.9 3.9-3.9h14.5c2.2 0 4 1.7 4 3.9v6.9c0 2-1.6 3.7-3.6 3.9l1 2.4c.2.4.1.9-.3 1.1-.1.2-.4.3-.6.3zm-15-16.5c-1 0-1.9.9-1.9 1.9v6.9c0 1 .9 1.9 1.9 1.9h8.9c.2 0 .4.1.5.2l3.4 2.1-.4-.9c-.1-.3-.1-.7.1-.9.2-.3.5-.4.8-.4h1.2c1 0 1.9-.9 1.9-1.9v-7c0-1.1-.9-1.9-2-1.9z"/></g><g><g><path d="m18.6 7.5h-10.9c-.6 0-1-.4-1-1s.4-1 1-1h10.9c.6 0 1 .4 1 1s-.4 1-1 1z"/></g><g><path d="m18.6 11.3h-10.9c-.6 0-1-.4-1-1s.4-1 1-1h10.9c.6 0 1 .4 1 1s-.4 1-1 1z"/></g></g></g></g></svg>