<?xml version="1.0" encoding="utf-8"?>
<!-- Generator: Adobe Illustrator 27.0.0, SVG Export Plug-In . SVG Version: 6.00 Build 0)  -->
<svg version="1.1" id="Layer_1" xmlns="http://www.w3.org/2000/svg" xmlns:xlink="http://www.w3.org/1999/xlink" x="0px" y="0px"
	 viewBox="0 0 200 200" style="enable-background:new 0 0 200 200;" xml:space="preserve">
<style type="text/css">
	.st0{fill:#828282;}
</style>
<g>
	<path class="st0" d="M155.9,118.2h12.9v43h-60.2v-17.2H39.7c-2.3,0-4.3-0.8-6-2.5c-1.7-1.7-2.5-3.7-2.5-6V40.8c0-2.3,0.8-4.3,2.5-6
		c1.7-1.7,3.7-2.5,6-2.5H143c2.3,0,4.3,0.8,6,2.5c1.7,1.7,2.5,3.7,2.5,6v48.8c1.3,1.5,2.3,3.3,3.1,5.2c0.8,2,1.2,4,1.2,6.1v17.3
		H155.9z M39.7,40.8v25.8H143V40.8H39.7z M39.7,101h81.7c0-4.8,1.7-8.8,5.1-12.2s7.4-5.1,12.2-5.1c0.7,0,1.5,0,2.2,0.1
		c0.7,0.1,1.5,0.3,2.1,0.5v-9.2H39.7V101z M108.5,135.4v-17.2h12.9v-8.6H39.7v25.8H108.5z M50.2,58.3c-1.3-1.3-1.9-2.8-1.9-4.6
		c0-1.8,0.6-3.3,1.9-4.6c1.3-1.3,2.8-1.9,4.6-1.9c1.8,0,3.3,0.6,4.6,1.9c1.3,1.3,1.9,2.8,1.9,4.6c0,1.8-0.6,3.3-1.9,4.6
		c-1.3,1.3-2.8,1.9-4.6,1.9C53,60.1,51.5,59.6,50.2,58.3z M59.3,83.6c1.3,1.3,1.9,2.8,1.9,4.6s-0.6,3.3-1.9,4.6
		c-1.3,1.3-2.8,1.9-4.6,1.9c-1.8,0-3.3-0.6-4.6-1.9c-1.3-1.3-1.9-2.8-1.9-4.6c0-1.8,0.6-3.3,1.9-4.6c1.3-1.3,2.8-1.9,4.6-1.9
		C56.6,81.6,58.1,82.3,59.3,83.6z M59.3,118c1.3,1.3,1.9,2.8,1.9,4.6c0,1.8-0.6,3.3-1.9,4.6c-1.3,1.3-2.8,1.9-4.6,1.9
		c-1.8,0-3.3-0.6-4.6-1.9c-1.3-1.3-1.9-2.8-1.9-4.6s0.6-3.3,1.9-4.6c1.3-1.3,2.8-1.9,4.6-1.9C56.6,116.1,58.1,116.7,59.3,118z
		 M53.3,52.2c-0.4,0.4-0.6,1-0.6,1.6c0,0.6,0.2,1.2,0.6,1.6c0.4,0.4,1,0.6,1.6,0.6c0.6,0,1.2-0.2,1.6-0.6c0.4-0.4,0.6-1,0.6-1.6
		c0-0.6-0.2-1.2-0.6-1.6c-0.4-0.4-1-0.6-1.6-0.6C54.2,51.5,53.6,51.8,53.3,52.2z M56.4,89.7c0.4-0.4,0.6-1,0.6-1.6
		c0-0.6-0.2-1.2-0.6-1.6c-0.4-0.4-1-0.6-1.6-0.6c-0.6,0-1.2,0.2-1.6,0.6c-0.4,0.4-0.6,1-0.6,1.6c0,0.6,0.2,1.2,0.6,1.6
		c0.4,0.4,1,0.6,1.6,0.6C55.4,90.2,56,90.1,56.4,89.7z M56.4,124c0.4-0.4,0.6-1,0.6-1.6c0-0.6-0.2-1.2-0.6-1.6
		c-0.4-0.4-1-0.6-1.6-0.6c-0.6,0-1.2,0.2-1.6,0.6c-0.4,0.4-0.6,1-0.6,1.6c0,0.6,0.2,1.2,0.6,1.6c0.4,0.4,1,0.6,1.6,0.6
		C55.4,124.7,56,124.5,56.4,124z M92.6,56.7c-0.8-0.8-1.3-1.9-1.3-3.1s0.4-2.1,1.3-3.1c0.8-0.8,1.9-1.3,3.1-1.3h34.5
		c1.2,0,2.1,0.4,3.1,1.3c0.8,0.8,1.3,1.9,1.3,3.1c0,1.2-0.4,2.2-1.3,3.1c-0.8,0.8-1.9,1.3-3.1,1.3H95.7C94.5,58,93.5,57.6,92.6,56.7
		z M115.8,85.1c0.8,0.8,1.3,1.9,1.3,3.1c0,1.2-0.4,2.2-1.3,3.1c-0.8,0.8-1.9,1.3-3.1,1.3H95.6c-1.2,0-2.2-0.4-3.1-1.3
		c-0.8-0.8-1.3-1.9-1.3-3.1c0-1.2,0.4-2.1,1.3-3.1c0.8-0.8,1.9-1.3,3.1-1.3h17.2C114,83.9,115,84.3,115.8,85.1z M92.7,119.6
		c0.7-0.8,1.7-1.4,3-1.4s2.2,0.4,3,1.4c0.4,0.3,0.7,0.8,1.1,1.4c0.2,0.5,0.3,1.1,0.3,1.6c0,0.5-0.1,1.1-0.3,1.6
		c-0.2,0.5-0.5,1-1.1,1.4c-0.3,0.4-0.8,0.7-1.4,1.1c-0.5,0.2-1.1,0.3-1.6,0.3s-1.1-0.1-1.6-0.3c-0.5-0.2-1-0.5-1.4-1.1
		c-0.4-0.3-0.7-0.8-1.1-1.4c-0.2-0.5-0.3-1.1-0.3-1.6c0-0.5,0.1-1.1,0.3-1.6C91.9,120.3,92.2,119.9,92.7,119.6z M160.2,126.8h-43
		v25.8h43V126.8z M147.2,118.2V101c0-2.3-0.8-4.3-2.5-6s-3.7-2.5-6-2.5c-2.3,0-4.3,0.8-6,2.5c-1.7,1.7-2.5,3.7-2.5,6v17.2H147.2z
		 M135.7,147c-0.8-0.8-1.3-1.9-1.3-3.1v-8.6c0-1.2,0.4-2.1,1.3-3.1c0.8-0.8,1.9-1.3,3.1-1.3c1.2,0,2.1,0.4,3.1,1.3
		c0.8,0.8,1.3,1.9,1.3,3.1v8.6c0,1.2-0.4,2.2-1.3,3.1s-1.9,1.3-3.1,1.3C137.5,148.3,136.5,147.9,135.7,147z"/>
</g>
</svg>
