<?xml version="1.0" encoding="utf-8"?>
<!-- Generator: Adobe Illustrator 27.0.0, SVG Export Plug-In . SVG Version: 6.00 Build 0)  -->
<svg version="1.1" id="Layer_1" xmlns="http://www.w3.org/2000/svg" xmlns:xlink="http://www.w3.org/1999/xlink" x="0px" y="0px"
	 viewBox="0 0 200 200" style="enable-background:new 0 0 200 200;" xml:space="preserve">
<style type="text/css">
	.st0{fill:#828282;}
</style>
<g>
	<path class="st0" d="M147.4,53.5c0.1,0,0.2,0,0.3,0s0.1,0,0.2,0c0.9,0.1,1.6,0.3,2.3,0.5c0.7,0.3,1.4,0.6,1.9,1.2
		c1.3,1.1,2,2.6,2.2,4.4c0.2,1.9,0,4-0.6,6.5c-0.5,2.4-1.7,7.4-3.4,14.9c-1.8,7.4-3.6,15.3-5.5,23.7c-1.9,8.4-3.7,16.2-5.4,23.4
		c-1.6,7.2-2.7,11.8-3.2,13.7c-0.3,1.1-0.7,2.1-1.3,3c-0.5,0.9-1.2,1.6-1.9,2.1c-0.6,0.5-1.4,0.9-2.2,1c-0.9,0.1-1.6,0.2-2.2,0.2
		c-1.4-0.2-3-0.7-4.8-1.7l-23-17.5c-1.1,1.1-3,2.9-5.7,5.4c-2.8,2.7-4.6,4.4-5.5,5.2c-0.7,0.6-1.5,1.2-2.2,1.5
		c-0.7,0.3-1.4,0.5-1.9,0.7c-0.4,0.1-0.7,0.1-1.1,0.1s-0.6,0-0.9,0c-1.1,0.1-2-0.2-3.1-0.9c-1-0.6-1.7-1.4-2-2.3
		c-0.7-2.4-1.5-5.3-2.4-8.6c-1-3.2-1.8-6.4-2.7-9.2c-0.9-3-1.6-5.5-2.2-7.8c-0.6-2.1-1-3.5-1.1-3.9c-0.9-0.2-3.9-1.3-9.1-3
		s-9.9-3.3-14.2-4.6v-0.1h-0.1c-1.2-0.4-2.2-1-3-1.6c-0.9-0.5-1.5-1.3-1.9-2.2c-0.3-0.9-0.4-1.8-0.2-2.8c0.2-1,0.6-1.7,1.2-2.2
		c1-1.1,2.1-1.9,3.5-2.6s2.6-1.1,3.5-1.5c0.3-0.1,1.9-0.6,4.8-1.7c2.9-1.1,6.5-2.4,10.7-3.9c4.4-1.6,9.2-3.3,14.6-5.3
		c5.4-1.9,10.8-3.9,16.5-6.1c5.6-2,11.2-4.1,16.6-6.2c5.3-2,10.2-3.8,14.6-5.4c4.4-1.6,8-2.9,10.8-3.9c2.9-1.1,4.6-1.7,5.1-1.9
		c0.6-0.2,1.2-0.4,1.8-0.5C146.3,53.6,146.9,53.5,147.4,53.5z M147.8,58.3c-0.3,0-0.6,0-1.1,0.1c-0.4,0.1-0.7,0.2-1.2,0.3
		c-3.9,1.5-7.9,3-11.8,4.4c-3.9,1.4-7.9,2.9-11.8,4.4s-7.9,2.9-11.8,4.4c-3.9,1.4-7.9,2.9-11.8,4.4c-5.5,2-11.1,4-16.5,6
		c-5.4,2-10.3,3.8-14.7,5.3c-4.3,1.6-7.9,2.9-10.6,3.8s-4.5,1.6-5.1,1.8c-0.7,0.3-1.7,0.7-2.8,1.3s-1.8,1.1-2.1,1.4
		c-0.1,0-0.1,0-0.1,0s0,0-0.1,0c0.1,0.1,0.3,0.2,0.6,0.4c0.3,0.2,0.7,0.4,1.5,0.7c4.4,1.4,9.2,3,14.5,4.7c5.2,1.7,8.2,2.8,8.9,3.1
		c0.6-0.4,3-1.8,6.8-4c3.9-2.2,8.5-4.9,13.6-7.9c5.2-3,10.6-6.2,16.3-9.4c5.6-3.3,10.5-6.1,14.7-8.4c1.2-0.5,2.2-1.3,3.4-1.9
		c1.2-0.7,2.3-1.2,3.6-1.4c1,0,1.7,0.5,2,1.5c0.4,1,0.2,1.8-0.4,2.6c-3.5,3-7.4,6.5-11.9,10.5c-4.5,4-8.8,8-13.1,11.8
		c-4.3,3.8-8,7.2-11.3,10.2s-5.3,4.9-6.3,5.7l37,28.3c1.1,0.5,1.9,0.9,2.6,0.9c0.3,0,0.5,0,0.7,0c0.2,0,0.4-0.1,0.5-0.3
		c0.2-0.1,0.4-0.3,0.6-0.6c0.2-0.3,0.4-0.9,0.6-1.6c1.4-5.6,2.8-11.6,4.1-17.6c1.4-6.2,2.8-12.4,4.3-18.9c1.5-6.4,3-13,4.5-19.6
		c1.5-6.6,3.1-13.2,4.6-19.8c0.6-2,0.9-3.5,0.6-4.5c-0.2-1-0.4-1.5-0.7-1.7c-0.1-0.1-0.3-0.3-0.5-0.3
		C148.3,58.3,148.1,58.3,147.8,58.3z M88,119l-1.4,17c0.9-0.7,2.4-2.2,5-4.6c2.4-2.3,4.4-4.1,5.6-5.4L88,119z"/>
</g>
</svg>
