<?xml version="1.0" encoding="utf-8"?>
<!-- Generator: Adobe Illustrator 27.0.0, SVG Export Plug-In . SVG Version: 6.00 Build 0)  -->
<svg version="1.1" id="Layer_1" xmlns="http://www.w3.org/2000/svg" xmlns:xlink="http://www.w3.org/1999/xlink" x="0px" y="0px"
	 viewBox="0 0 200 200" style="enable-background:new 0 0 200 200;" xml:space="preserve">
<style type="text/css">
	.st0{fill:#828282;}
</style>
<g>
	<path class="st0" d="M112,33.2l36.4,36.4v99.1H51V33.2H112z M139.8,160.1V75.6H106V41.7H59.4v118.5H139.8z M73.4,82.8
		c-0.8-0.8-1.3-1.9-1.3-3s0.4-2.1,1.3-3c0.8-0.8,1.9-1.3,3-1.3h16.9c1.1,0,2.1,0.4,3,1.3c0.8,0.8,1.3,1.9,1.3,3s-0.4,2.2-1.3,3
		s-1.9,1.3-3,1.3H76.4C75.3,84,74.3,83.6,73.4,82.8z M125.9,98c0.8,0.8,1.3,1.9,1.3,3c0,1.1-0.4,2.1-1.3,3c-0.8,0.8-1.9,1.3-3,1.3
		H76.4c-1.1,0-2.2-0.4-3-1.3c-0.8-0.8-1.3-1.9-1.3-3c0-1.1,0.4-2.1,1.3-3c0.8-0.8,1.9-1.3,3-1.3H123C124.1,96.7,125,97.1,125.9,98z
		 M125.9,119c0.8,0.8,1.3,1.9,1.3,3c0,1.1-0.4,2.1-1.3,3c-0.8,0.8-1.9,1.3-3,1.3H76.4c-1.1,0-2.2-0.4-3-1.3c-0.8-0.8-1.3-1.9-1.3-3
		c0-1.1,0.4-2.1,1.3-3c0.8-0.8,1.9-1.3,3-1.3H123C124.1,117.8,125,118.2,125.9,119z M117.4,140.2c0.8,0.8,1.3,1.9,1.3,3
		c0,1.1-0.4,2.2-1.3,3c-0.8,0.8-1.9,1.3-3,1.3h-38c-1.1,0-2.2-0.4-3-1.3c-0.8-0.8-1.3-1.9-1.3-3c0-1.1,0.4-2.1,1.3-3
		c0.8-0.8,1.9-1.3,3-1.3h38.1C115.7,139,116.6,139.4,117.4,140.2z M114.5,47.6V67h19.4L114.5,47.6z"/>
</g>
</svg>
