<?xml version="1.0" encoding="utf-8"?>
<!-- Generator: Adobe Illustrator 27.0.0, SVG Export Plug-In . SVG Version: 6.00 Build 0)  -->
<svg version="1.1" id="Layer_1" xmlns="http://www.w3.org/2000/svg" xmlns:xlink="http://www.w3.org/1999/xlink" x="0px" y="0px"
	 viewBox="0 0 200 200" style="enable-background:new 0 0 200 200;" xml:space="preserve">
<style type="text/css">
	.st0{fill:#828282;}
</style>
<g>
	<path class="st0" d="M156.1,58.7c1.2,0,2.1,0.4,2.9,1.2c0.7,0.9,1.2,1.7,1.2,2.9v21.8c0,1.1-0.4,2-1.2,2.9
		c-0.7,0.9-1.7,1.2-2.9,1.2c-4.6,0-9.2-0.5-13.6-1.7c-4.5-1.2-8.6-2.8-12.7-4.9v39.5c0,6.2-1.2,12.1-3.6,17.6
		c-2.3,5.6-5.6,10.4-9.7,14.4c-4.1,4.1-8.9,7.4-14.4,9.8c-5.6,2.3-11.4,3.5-17.7,3.5c-6.2,0-12.1-1.2-17.6-3.5
		c-5.6-2.5-10.4-5.7-14.4-9.8c-4.1-4.1-7.4-8.9-9.8-14.4c-2.3-5.6-3.5-11.3-3.5-17.6c0-6.3,1.2-12.3,3.5-17.7
		c2.5-5.6,5.7-10.4,9.8-14.4c4.1-4.1,8.9-7.4,14.4-9.7c5.6-2.5,11.3-3.6,17.6-3.6c1.2,0,2.1,0.4,2.9,1.2c0.7,0.9,1.2,1.7,1.2,2.9
		v21.8c0,1.2-0.4,2.1-1.2,2.9c-0.7,0.7-1.7,1.2-2.9,1.2c-4.3,0-7.9,1.5-10.9,4.5c-3,3-4.5,6.7-4.5,11c0,4.3,1.5,7.9,4.5,10.9
		c3,3,6.6,4.5,10.9,4.5c4.4,0,8-1.5,11-4.5s4.5-6.6,4.5-10.9V32.4c0-1.1,0.4-2,1.2-2.9c0.7-0.9,1.7-1.2,2.9-1.2h21.9
		c1.1,0,2,0.4,2.9,1.2c0.9,0.7,1.2,1.7,1.2,2.9c0,3.6,0.6,7,2,10.3c1.4,3.2,3.2,6,5.7,8.3c2.3,2.3,5.2,4.3,8.4,5.8
		C149.1,58.1,152.5,58.7,156.1,58.7z"/>
</g>
</svg>
