<?xml version="1.0" encoding="UTF-8"?>
<svg xmlns="http://www.w3.org/2000/svg" id="Layer_1" data-name="Layer 1" viewBox="0 0 64 64" width="512" height="512"><path d="M32,10A22,22,0,1,0,54,32,22.02489,22.02489,0,0,0,32,10Zm0,42A20,20,0,1,1,52,32,20.02229,20.02229,0,0,1,32,52Z"/><path d="M61.43164,25.22461H59.4834a1.90474,1.90474,0,0,1-1.77442-1.3877,26.74251,26.74251,0,0,0-1.75976-4.23632,1.90578,1.90578,0,0,1,.27344-2.24121l1.38476-1.38575a1.00009,1.00009,0,0,0,.12207-1.26562,30.97313,30.97313,0,0,0-8.4375-8.4375,1.00031,1.00031,0,0,0-1.26562.12207L46.64062,7.77734a1.90766,1.90766,0,0,1-2.24023.27442A26.81159,26.81159,0,0,0,40.16309,6.291a1.90474,1.90474,0,0,1-1.3877-1.77442V2.56836a1,1,0,0,0-.80859-.98145,30.74962,30.74962,0,0,0-11.9336,0,1,1,0,0,0-.80859.98145V4.5166A1.90474,1.90474,0,0,1,23.83691,6.291a26.85062,26.85062,0,0,0-4.23632,1.75976,1.9021,1.9021,0,0,1-2.24121-.27344L15.97363,6.39258A.99775.99775,0,0,0,14.708,6.27051a30.97313,30.97313,0,0,0-8.4375,8.4375,1.00009,1.00009,0,0,0,.12207,1.26562l1.38476,1.38575a1.90615,1.90615,0,0,1,.27442,2.24023A26.70388,26.70388,0,0,0,6.291,23.83691a1.90474,1.90474,0,0,1-1.77442,1.3877H2.56836a1,1,0,0,0-.98145.80859,30.62409,30.62409,0,0,0,0,11.9336,1,1,0,0,0,.98145.80859H4.5166A1.90474,1.90474,0,0,1,6.291,40.16309a26.85062,26.85062,0,0,0,1.75976,4.23632,1.90578,1.90578,0,0,1-.27344,2.24121L6.39258,48.02637A1.00009,1.00009,0,0,0,6.27051,49.292a30.97313,30.97313,0,0,0,8.4375,8.4375.99507.99507,0,0,0,1.26562-.12207l1.38575-1.38476a1.904,1.904,0,0,1,2.24023-.27442,26.81159,26.81159,0,0,0,4.2373,1.76074,1.90474,1.90474,0,0,1,1.3877,1.77442v1.94824a1,1,0,0,0,.80859.98145,30.62409,30.62409,0,0,0,11.9336,0,1,1,0,0,0,.80859-.98145V59.4834a1.90474,1.90474,0,0,1,1.3877-1.77442,26.85062,26.85062,0,0,0,4.23632-1.75976,1.90578,1.90578,0,0,1,2.24121.27344l1.38575,1.38476a.99873.99873,0,0,0,1.26562.12207,30.97313,30.97313,0,0,0,8.4375-8.4375,1.00009,1.00009,0,0,0-.12207-1.26562l-1.38476-1.38575a1.90615,1.90615,0,0,1-.27442-2.24023,26.81159,26.81159,0,0,0,1.76074-4.2373,1.90474,1.90474,0,0,1,1.77442-1.3877h1.94824a1,1,0,0,0,.98145-.80859,30.62409,30.62409,0,0,0,0-11.9336A1,1,0,0,0,61.43164,25.22461Zm-.835,11.55078H59.4834a3.89649,3.89649,0,0,0-3.68067,2.78223,24.76171,24.76171,0,0,1-1.6289,3.91992,3.89769,3.89769,0,0,0,.63476,4.57715l.79395.79492a28.93577,28.93577,0,0,1-6.75293,6.75293l-.79492-.79395a3.89151,3.89151,0,0,0-4.57813-.63379,24.79969,24.79969,0,0,1-3.91894,1.62793,3.89649,3.89649,0,0,0-2.78223,3.68067v1.11328a28.60882,28.60882,0,0,1-9.55078,0V59.4834a3.89649,3.89649,0,0,0-2.78223-3.68067,24.76171,24.76171,0,0,1-3.91992-1.6289,3.89468,3.89468,0,0,0-4.57715.63476l-.79492.79395a28.93577,28.93577,0,0,1-6.75293-6.75293l.79395-.79492a3.89728,3.89728,0,0,0,.63379-4.57813,24.79969,24.79969,0,0,1-1.62793-3.91894A3.89649,3.89649,0,0,0,4.5166,36.77539H3.40332a28.47245,28.47245,0,0,1,0-9.55078H4.5166a3.89649,3.89649,0,0,0,3.68067-2.78223,24.784,24.784,0,0,1,1.6289-3.91992,3.89769,3.89769,0,0,0-.63476-4.57715l-.79395-.79492a28.93577,28.93577,0,0,1,6.75293-6.75293l.79492.79395a3.89385,3.89385,0,0,0,4.57813.63379,24.79969,24.79969,0,0,1,3.91894-1.62793A3.89649,3.89649,0,0,0,27.22461,4.5166V3.40332a28.60882,28.60882,0,0,1,9.55078,0V4.5166a3.89649,3.89649,0,0,0,2.78223,3.68067,24.76171,24.76171,0,0,1,3.91992,1.6289,3.89942,3.89942,0,0,0,4.57715-.63476l.79492-.79395a28.93577,28.93577,0,0,1,6.75293,6.75293l-.79395.79492a3.89728,3.89728,0,0,0-.63379,4.57813,24.822,24.822,0,0,1,1.62793,3.91894,3.89649,3.89649,0,0,0,3.68067,2.78223h1.11328a28.47245,28.47245,0,0,1,0,9.55078Z"/><path d="M32,29c-4.56055,0-8,1.8623-8,4.333V46.667C24,49.1377,27.43945,51,32,51s8-1.8623,8-4.333V33.333C40,30.8623,36.56055,29,32,29Zm6,17.667C38,47.61816,35.66309,49,32,49s-6-1.38184-6-2.333V45.14221a11.81389,11.81389,0,0,0,6,1.41345,11.81389,11.81389,0,0,0,6-1.41345Zm0-4.44433c0,.95117-2.33691,2.333-6,2.333s-6-1.38183-6-2.333V40.69733a11.81063,11.81063,0,0,0,6,1.414,11.81063,11.81063,0,0,0,6-1.414Zm0-4.44532c0,.95118-2.33691,2.334-6,2.334s-6-1.38281-6-2.334V36.253a11.81052,11.81052,0,0,0,6,1.414,11.81052,11.81052,0,0,0,6-1.414ZM32,35.667c-3.66309,0-6-1.38281-6-2.334S28.33691,31,32,31s6,1.38184,6,2.333S35.66309,35.667,32,35.667Z"/><path d="M26,21h2.5v6a.99943.99943,0,0,0,1,1h5a.99943.99943,0,0,0,1-1V21H38a.99991.99991,0,0,0,.707-1.707l-6-6a.99962.99962,0,0,0-1.41406,0l-6,6A.99991.99991,0,0,0,26,21Zm6-5.58594L35.58594,19H34.5a.99943.99943,0,0,0-1,1v6h-3V20a.99943.99943,0,0,0-1-1H28.41406Z"/></svg>
