<?xml version="1.0" encoding="UTF-8"?>
<svg id="Layer_1" data-name="Layer 1" xmlns="http://www.w3.org/2000/svg" viewBox="0 0 96.97 96.98">
  <defs>
    <style>
      .cls-1, .cls-2 {
        fill: #cda872;
      }

      .cls-2 {
        fill-rule: evenodd;
      }
    </style>
  </defs>
  <path class="cls-1" d="m48.5,2.36c25.45,0,46.1,20.63,46.1,46.12s-20.66,46.12-46.1,46.12S2.37,73.94,2.37,48.49,23.01,2.36,48.5,2.36m0-2.36C21.76,0,0,21.75,0,48.49s21.76,48.49,48.5,48.49,48.47-21.75,48.47-48.49S75.22,0,48.5,0h0Z"/>
  <path class="cls-2" d="m20.58,67.27c4.39.28,8.64-.37,12.64-2.17,1.8-.79,3.44-1.76,5.07-3.05-1.91-.04-3.65-.52-5.24-1.31-2.71-1.38-4.62-3.55-5.78-6.47q-.26-.64.45-.6c1.93.19,3.35.15,4.45-.28-1.05-.37-2.04-.56-2.86-1.1-4.04-2.24-6.19-5.7-6.55-10.34-.04-.54.11-.6.6-.37,1.42.8,2.97,1.12,4.75,1.29-.77-.69-1.44-1.25-2.04-1.85-3.35-3.61-4.15-9.33-1.91-13.73.3-.6.41-.6.82-.13,5.65,6.51,12.68,10.45,21.15,11.8.86.17,1.8.17,2.69.37.6.09.66-.19.58-.64-.88-5.1,1.51-10.14,6.02-12.68,4.6-2.69,10.57-1.85,14.27,1.76.43.37.84.45,1.33.32,2.28-.52,4.4-1.35,6.4-2.51.17-.04.3-.13.52-.32-.86,2.88-2.58,5.01-5.11,6.71,2.34-.21,4.45-.92,6.53-1.7.04.28-.17.45-.3.69-1.42,1.93-3.07,3.65-5.03,5.14-.37.28-.45.52-.45.97.15,8.9-2.69,16.81-8.36,23.68-5.33,6.26-12.14,10.06-20.25,11.35-8.6,1.33-16.68-.09-24.12-4.69-.09-.09-.19-.13-.26-.13Z"/>
</svg>