<?xml version="1.0" standalone="no"?>
<svg xmlns:xlink="http://www.w3.org/1999/xlink" id="wave" style="transform:rotate(0deg); transition: 0.3s" viewBox="0 0 1440 490" version="1.1" xmlns="http://www.w3.org/2000/svg"><defs><linearGradient id="sw-gradient-0" x1="0" x2="0" y1="1" y2="0"><stop stop-color="rgba(0, 0, 0, 1)" offset="0%"/><stop stop-color="rgba(0, 0, 0, 1)" offset="100%"/></linearGradient></defs><path style="transform:translate(0, 0px); opacity:1" fill="url(#sw-gradient-0)" d="M0,245L60,269.5C120,294,240,343,360,343C480,343,600,294,720,302.2C840,310,960,376,1080,375.7C1200,376,1320,310,1440,245C1560,180,1680,114,1800,122.5C1920,131,2040,212,2160,236.8C2280,261,2400,229,2520,187.8C2640,147,2760,98,2880,138.8C3000,180,3120,310,3240,318.5C3360,327,3480,212,3600,138.8C3720,65,3840,33,3960,65.3C4080,98,4200,196,4320,245C4440,294,4560,294,4680,294C4800,294,4920,294,5040,285.8C5160,278,5280,261,5400,220.5C5520,180,5640,114,5760,98C5880,82,6000,114,6120,106.2C6240,98,6360,49,6480,65.3C6600,82,6720,163,6840,236.8C6960,310,7080,376,7200,351.2C7320,327,7440,212,7560,196C7680,180,7800,261,7920,294C8040,327,8160,310,8280,269.5C8400,229,8520,163,8580,130.7L8640,98L8640,490L8580,490C8520,490,8400,490,8280,490C8160,490,8040,490,7920,490C7800,490,7680,490,7560,490C7440,490,7320,490,7200,490C7080,490,6960,490,6840,490C6720,490,6600,490,6480,490C6360,490,6240,490,6120,490C6000,490,5880,490,5760,490C5640,490,5520,490,5400,490C5280,490,5160,490,5040,490C4920,490,4800,490,4680,490C4560,490,4440,490,4320,490C4200,490,4080,490,3960,490C3840,490,3720,490,3600,490C3480,490,3360,490,3240,490C3120,490,3000,490,2880,490C2760,490,2640,490,2520,490C2400,490,2280,490,2160,490C2040,490,1920,490,1800,490C1680,490,1560,490,1440,490C1320,490,1200,490,1080,490C960,490,840,490,720,490C600,490,480,490,360,490C240,490,120,490,60,490L0,490Z"/></svg>