<?xml version="1.0" encoding="UTF-8"?>
<svg id="Layer_1" data-name="Layer 1" xmlns="http://www.w3.org/2000/svg" viewBox="0 0 96.99 96.98">
  <defs>
    <style>
      .cls-1, .cls-2 {
        fill: #cda872;
      }

      .cls-2 {
        fill-rule: evenodd;
      }
    </style>
  </defs>
  <path class="cls-1" d="m48.48,2.37c25.47,0,46.14,20.63,46.14,46.12s-20.67,46.12-46.14,46.12S2.38,73.98,2.38,48.49,23.01,2.37,48.48,2.37m0-2.37C21.75,0,0,21.75,0,48.49s21.75,48.49,48.48,48.49,48.51-21.75,48.51-48.49S75.23,0,48.48,0h0Z"/>
  <g>
    <path class="cls-2" d="m75.83,41.87c-3.05-12.77-14.07-21.47-27.35-21.64-1.75.09-3.64.21-5.36.54-18.62,3.76-28.21,24.31-19.2,40.86.32.47.32.88.26,1.4-1.31,4.3-2.51,8.7-3.68,13.05q-.19.75.53.56c4.55-1.25,9.05-2.41,13.58-3.53.4-.13.68-.13,1.01.04,5.82,2.96,11.97,3.8,18.42,2.6,15.38-2.96,25.47-18.66,21.8-33.87Zm-23.41,29.38c-1.34.24-2.6.37-3.24.28-4.95,0-8.94-1.12-12.65-3.24-.53-.32-.92-.41-1.43-.22-2.54.6-5.01,1.29-7.52,1.93-.52.15-.57.04-.45-.45.67-2.32,1.29-4.69,2.02-7.09.16-.64.12-1.16-.29-1.66-5.08-8.3-4.86-18.46.83-26.16,5.92-7.91,14.06-11.2,23.72-9.11,9.53,2,15.64,8.19,17.81,17.69,3.08,13-5.69,25.9-18.8,28.03Z"/>
    <path class="cls-2" d="m55.82,61.62c-.98.11-1.97-.09-2.91-.37-6.42-1.89-11.27-5.82-15.18-11.15-1.45-1.98-2.84-4.1-3.26-6.62-.59-2.9.32-5.5,2.53-7.48.73-.71,2.87-1.03,3.74-.56.28.24.44.45.62.73.8,2,1.64,3.85,2.45,5.74.12.43.1.8-.12,1.2-.43.88-1.09,1.57-1.72,2.32-.54.45-.54.97-.17,1.53,2.3,3.85,5.41,6.62,9.57,8.23.6.24,1.07.15,1.44-.32.72-.84,1.43-1.76,2.1-2.64.41-.54.96-.64,1.56-.37,1.38.6,2.73,1.25,4.04,1.85.37.19.62.32.94.47,1.39.69,1.39.77,1.23,2.26-.18,2.92-2.43,4.41-5,5.14-.7.15-1.26.15-1.87.04Z"/>
  </g>
</svg>