<?xml version="1.0" encoding="utf-8"?>
<!-- Generator: Adobe Illustrator 27.0.0, SVG Export Plug-In . SVG Version: 6.00 Build 0)  -->
<svg version="1.2" baseProfile="tiny" id="Layer_1" xmlns="http://www.w3.org/2000/svg" xmlns:xlink="http://www.w3.org/1999/xlink"
	 x="0px" y="0px" viewBox="0 0 200 200" overflow="visible" xml:space="preserve">
<g>
	<path fill="#828282" d="M150.3,106.6c4,4,6,8.8,6,14.5v16.5c0,5.7-2,10.5-6,14.5s-8.9,6-14.5,6H64.6c-5.7,0-10.5-2-14.5-6
		s-6-8.9-6-14.5V121c0-5.7,2-10.5,6-14.5s8.9-6,14.5-6h71.3C141.5,100.6,146.3,102.6,150.3,106.6z M79.5,113.4v-5.6H59.9v5.6h6.6v33
		H73v-33C73,113.4,79.5,113.4,79.5,113.4z M73.8,73.8l-8.5-25.6h7.2l4.7,17h0.5l4.4-17h7.2L80.9,73v17.6h-7.2V73.8H73.8z
		 M98.3,146.4v-28.5h-5.7v21.7c-0.3,0.3-0.5,0.5-0.8,0.8s-0.6,0.5-1,0.8c-0.3,0.2-0.6,0.3-0.9,0.4c-0.3,0.1-0.5,0.1-0.8,0.1
		s-0.5,0-0.6-0.1c-0.2,0-0.3-0.1-0.5-0.3c-0.1-0.2-0.2-0.4-0.3-0.6c-0.1-0.3-0.1-0.5-0.1-0.9V118H82v23.8c0,0.8,0.1,1.6,0.3,2.2
		c0.2,0.6,0.4,1.2,0.8,1.6c0.3,0.4,0.7,0.7,1.2,1c0.5,0.2,1,0.3,1.7,0.3c0.5,0,1-0.1,1.6-0.3c0.5-0.2,1.1-0.4,1.7-0.6
		c0.6-0.3,1.2-0.7,1.7-1.1c0.5-0.4,1.1-0.9,1.6-1.5v3.2h5.7V146.4z M99.2,91.5c-1.4,0-2.6-0.2-3.7-0.6s-2.1-1-3-1.8
		c-0.8-0.8-1.5-1.7-1.9-2.7c-0.4-1.1-0.6-2.3-0.6-3.6V66.5c0-1.2,0.2-2.3,0.7-3.2c0.5-1,1.1-1.8,2-2.6c0.8-0.7,1.8-1.2,3-1.6
		c1.1-0.4,2.5-0.6,4-0.6c1.3,0,2.5,0.2,3.6,0.6c1.1,0.4,2.1,1,2.9,1.7c0.8,0.8,1.5,1.6,1.9,2.6s0.6,2.1,0.6,3.4v16.1
		c0,1.4-0.2,2.6-0.6,3.6c-0.4,1.1-1.1,2-1.9,2.7c-0.8,0.8-1.7,1.3-2.9,1.7C102,91.3,100.7,91.5,99.2,91.5z M96.5,66.2v17.1
		c0,0.4,0.1,0.8,0.2,1.1c0.1,0.3,0.3,0.6,0.6,0.8c0.2,0.3,0.4,0.4,0.8,0.6c0.3,0.1,0.7,0.2,1.1,0.2s0.8-0.1,1.1-0.2
		c0.3-0.1,0.6-0.3,0.9-0.6c0.3-0.2,0.6-0.4,0.7-0.8c0.1-0.3,0.2-0.7,0.2-1.1V66.2c0-0.3-0.1-0.6-0.3-0.9c-0.2-0.3-0.4-0.5-0.6-0.8
		c-0.3-0.2-0.6-0.3-0.9-0.4C100,64,99.6,64,99.2,64c-0.3,0-0.7,0.1-1,0.2s-0.6,0.3-0.9,0.4c-0.3,0.3-0.4,0.5-0.6,0.8
		S96.5,65.9,96.5,66.2z M118.8,140.4v-15.7c0-1.2-0.1-2.2-0.3-3.1c-0.2-0.9-0.6-1.6-1.1-2.2s-1.1-1-1.8-1.3
		c-0.7-0.3-1.4-0.4-2.3-0.4c-0.5,0-1,0-1.4,0.1s-0.8,0.3-1.3,0.5c-0.4,0.3-0.8,0.5-1.3,0.8c-0.4,0.3-0.8,0.7-1.1,1.1v-12.3h-5.8
		v38.5h5.8v-2.3c0.3,0.5,0.7,0.9,1.1,1.2s0.8,0.6,1.3,0.8c0.4,0.2,0.9,0.3,1.4,0.4c0.5,0.1,1,0.1,1.5,0.1c0.8,0,1.6-0.1,2.2-0.4
		c0.6-0.3,1.2-0.6,1.7-1.1c0.4-0.6,0.7-1.3,1-2C118.7,142.3,118.8,141.4,118.8,140.4z M110.6,122c0.4,0,0.8,0.1,1.1,0.2
		c0.3,0.1,0.5,0.3,0.7,0.6c0.3,0.3,0.4,0.6,0.5,1s0.1,0.8,0.1,1.2v14.7c0,0.4,0,0.8-0.1,1.1s-0.2,0.6-0.4,0.8
		c-0.2,0.3-0.4,0.4-0.6,0.5c-0.3,0.1-0.5,0.1-0.9,0.1c-0.3,0-0.5,0-0.7-0.1c-0.2,0-0.4-0.1-0.7-0.2c-0.2-0.1-0.4-0.2-0.6-0.4
		c-0.3-0.2-0.5-0.4-0.6-0.6v-17.8c0.2-0.2,0.4-0.3,0.6-0.5s0.4-0.3,0.6-0.4s0.4-0.1,0.6-0.2C110.2,122,110.4,122,110.6,122z
		 M118.2,91.1c-0.8,0-1.4-0.1-2-0.3c-0.5-0.2-1-0.6-1.3-1.1c-0.4-0.4-0.7-1-0.9-1.7c-0.2-0.7-0.3-1.5-0.3-2.5V59.4h6.3v24
		c0,0.3,0,0.7,0.1,1s0.2,0.5,0.4,0.7c0.1,0.2,0.2,0.3,0.4,0.4c0.2,0.1,0.5,0.1,0.8,0.1s0.5-0.1,0.8-0.2s0.6-0.3,1-0.6
		c0.3-0.2,0.7-0.4,1-0.7c0.3-0.3,0.6-0.6,0.9-1V59.4h6.5v31.3h-6.5v-3.5c-0.6,0.7-1.2,1.2-1.8,1.7c-0.6,0.5-1.2,0.9-1.9,1.2
		c-0.6,0.3-1.2,0.6-1.8,0.8C119.4,91,118.8,91.1,118.2,91.1z M138.6,132.8v-7.2c0-1.4-0.2-2.6-0.6-3.6c-0.4-1.1-0.9-1.9-1.6-2.6
		c-0.7-0.8-1.5-1.3-2.5-1.6c-1-0.3-2.2-0.5-3.4-0.5s-2.4,0.2-3.5,0.6c-1.1,0.4-2,1-2.7,1.7c-0.8,0.8-1.5,1.6-1.8,2.7
		c-0.4,1-0.6,2.2-0.6,3.4v12.7c0,1.4,0.2,2.7,0.5,3.7c0.3,1.1,0.9,2,1.6,2.7s1.6,1.4,2.6,1.8c1,0.4,2.1,0.6,3.5,0.6
		c1.4,0,2.6-0.2,3.6-0.6c1.1-0.4,2-1,2.7-1.7s1.2-1.6,1.6-2.7c0.4-1.1,0.6-2.4,0.6-3.9v-1.4h-5.8v1.3c0,0.8-0.1,1.5-0.2,2.1
		c-0.1,0.6-0.3,1-0.4,1.2c-0.2,0.3-0.4,0.4-0.8,0.5c-0.3,0.1-0.7,0.1-1.1,0.1c-0.5,0-0.9-0.1-1.2-0.2c-0.3-0.1-0.6-0.3-0.8-0.6
		s-0.3-0.8-0.4-1.3s-0.1-1.1-0.1-1.9v-5.3L138.6,132.8L138.6,132.8z M130.2,122.2c0.4,0,0.8,0.1,1.1,0.2s0.6,0.3,0.8,0.6
		c0.2,0.3,0.3,0.6,0.4,1c0.1,0.4,0.2,0.9,0.2,1.5v2.9h-5.1v-2.9c0-0.6,0-1.1,0.1-1.5s0.3-0.8,0.5-1c0.2-0.3,0.4-0.4,0.8-0.6
		C129.4,122.2,129.8,122.2,130.2,122.2z"/>
</g>
</svg>
